<?xml version="1.0" encoding="UTF-8" standalone="no"?><svg xmlns="http://www.w3.org/2000/svg" xmlns:xlink="http://www.w3.org/1999/xlink" contentScriptType="application/ecmascript" contentStyleType="text/css" height="1105px" preserveAspectRatio="none" style="width:600px;height:1105px;" version="1.1" viewBox="0 0 600 1105" width="600px" zoomAndPan="magnify">
    <defs>
        <filter height="300%" id="fnkjwsocvj0ol" width="300%" x="-1" y="-1">
            <feGaussianBlur result="blurOut" stdDeviation="2.0" />
            <feColorMatrix in="blurOut" result="blurOut2" type="matrix" values="0 0 0 0 0 0 0 0 0 0 0 0 0 0 0 0 0 0 .4 0" />
            <feOffset dx="4.0" dy="4.0" in="blurOut2" result="blurOut3" />
            <feBlend in="SourceGraphic" in2="blurOut3" mode="normal" />
        </filter>
    </defs>
    <g>
        <!--class Timetable-->
        <rect fill="#FEFECE" filter="url(#fnkjwsocvj0ol)" height="144.8516" id="Timetable" style="stroke: #A80036; stroke-width: 1.5;" width="96" x="84.8943" y="186" />
        <ellipse cx="103.9443" cy="202" fill="#ADD1B2" rx="11" ry="11" style="stroke: #A80036; stroke-width: 1.0;" />
        <path d="M106.7099,197.875 Q106.8662,197.6563 107.0537,197.5469 Q107.2412,197.4375 107.4599,197.4375 Q107.8349,197.4375 108.0693,197.6953 Q108.3037,197.9531 108.3037,198.5625 L108.3037,200.0156 Q108.3037,200.625 108.0693,200.8906 Q107.8349,201.1563 107.4599,201.1563 Q107.1162,201.1563 106.9131,200.9531 Q106.7099,200.7656 106.6006,200.25 Q106.5537,199.8906 106.3662,199.7031 Q106.0381,199.3281 105.4287,199.1094 Q104.8193,198.8906 104.1943,198.8906 Q103.4287,198.8906 102.7959,199.2188 Q102.1631,199.5469 101.6709,200.2969 Q101.1787,201.0469 101.1787,202.0781 L101.1787,203.1719 Q101.1787,204.4063 102.0693,205.2266 Q102.9599,206.0469 104.5537,206.0469 Q105.4912,206.0469 106.1474,205.7969 Q106.5381,205.6406 106.9599,205.2031 Q107.2256,204.9375 107.374,204.8594 Q107.5224,204.7813 107.7256,204.7813 Q108.0537,204.7813 108.3115,205.0391 Q108.5693,205.2969 108.5693,205.6406 Q108.5693,205.9844 108.2256,206.3906 Q107.7256,206.9688 106.9287,207.2969 Q105.8506,207.75 104.5537,207.75 Q103.0381,207.75 101.8349,207.125 Q100.8506,206.625 100.1631,205.5547 Q99.4756,204.4844 99.4756,203.2031 L99.4756,202.0469 Q99.4756,200.7188 100.0927,199.5703 Q100.7099,198.4219 101.8037,197.8047 Q102.8974,197.1875 104.1318,197.1875 Q104.8662,197.1875 105.5146,197.3516 Q106.1631,197.5156 106.7099,197.875 Z " /><text fill="#000000" font-family="sans-serif" font-size="12" lengthAdjust="spacingAndGlyphs" textLength="55" x="118.8443" y="206.9102">Timetable</text>
        <line style="stroke: #A80036; stroke-width: 1.5;" x1="85.8943" x2="179.8943" y1="218" y2="218" /><text fill="#000000" font-family="sans-serif" font-size="11" lengthAdjust="spacingAndGlyphs" textLength="83" x="90.8943" y="233.4189">Lesson[] lessons</text>
        <line style="stroke: #A80036; stroke-width: 1.5;" x1="85.8943" x2="179.8943" y1="239.8359" y2="239.8359" /><text fill="#000000" font-family="sans-serif" font-size="11" lengthAdjust="spacingAndGlyphs" textLength="62" x="90.8943" y="255.2549">addLesson()</text><text fill="#000000" font-family="sans-serif" font-size="11" lengthAdjust="spacingAndGlyphs" textLength="80" x="90.8943" y="269.0908">removeLesson()</text><text fill="#000000" font-family="sans-serif" font-size="11" lengthAdjust="spacingAndGlyphs" textLength="80" x="90.8943" y="282.9268">changeLesson()</text><text fill="#000000" font-family="sans-serif" font-size="11" lengthAdjust="spacingAndGlyphs" textLength="81" x="90.8943" y="296.7627">showTimetable()</text><text fill="#000000" font-family="sans-serif" font-size="11" lengthAdjust="spacingAndGlyphs" textLength="84" x="90.8943" y="310.5986">searchLessons()</text><text fill="#000000" font-family="sans-serif" font-size="11" lengthAdjust="spacingAndGlyphs" textLength="58" x="90.8943" y="324.4346">bookClass()</text>
        <!--class Lesson-->
        <rect fill="#FEFECE" filter="url(#fnkjwsocvj0ol)" height="131.0156" id="Lesson" style="stroke: #A80036; stroke-width: 1.5;" width="137" x="64.3943" y="409" />
        <ellipse cx="107.7443" cy="425" fill="#ADD1B2" rx="11" ry="11" style="stroke: #A80036; stroke-width: 1.0;" />
        <path d="M110.5099,420.875 Q110.6662,420.6563 110.8537,420.5469 Q111.0412,420.4375 111.2599,420.4375 Q111.6349,420.4375 111.8693,420.6953 Q112.1037,420.9531 112.1037,421.5625 L112.1037,423.0156 Q112.1037,423.625 111.8693,423.8906 Q111.6349,424.1563 111.2599,424.1563 Q110.9162,424.1563 110.7131,423.9531 Q110.5099,423.7656 110.4006,423.25 Q110.3537,422.8906 110.1662,422.7031 Q109.8381,422.3281 109.2287,422.1094 Q108.6193,421.8906 107.9943,421.8906 Q107.2287,421.8906 106.5959,422.2188 Q105.9631,422.5469 105.4709,423.2969 Q104.9787,424.0469 104.9787,425.0781 L104.9787,426.1719 Q104.9787,427.4063 105.8693,428.2266 Q106.7599,429.0469 108.3537,429.0469 Q109.2912,429.0469 109.9474,428.7969 Q110.3381,428.6406 110.7599,428.2031 Q111.0256,427.9375 111.174,427.8594 Q111.3224,427.7813 111.5256,427.7813 Q111.8537,427.7813 112.1115,428.0391 Q112.3693,428.2969 112.3693,428.6406 Q112.3693,428.9844 112.0256,429.3906 Q111.5256,429.9688 110.7287,430.2969 Q109.6506,430.75 108.3537,430.75 Q106.8381,430.75 105.6349,430.125 Q104.6506,429.625 103.9631,428.5547 Q103.2756,427.4844 103.2756,426.2031 L103.2756,425.0469 Q103.2756,423.7188 103.8927,422.5703 Q104.5099,421.4219 105.6037,420.8047 Q106.6974,420.1875 107.9318,420.1875 Q108.6662,420.1875 109.3146,420.3516 Q109.9631,420.5156 110.5099,420.875 Z " /><text fill="#000000" font-family="sans-serif" font-size="12" lengthAdjust="spacingAndGlyphs" textLength="42" x="128.0443" y="429.9102">Lesson</text>
        <line style="stroke: #A80036; stroke-width: 1.5;" x1="65.3943" x2="200.3943" y1="441" y2="441" /><text fill="#000000" font-family="sans-serif" font-size="11" lengthAdjust="spacingAndGlyphs" textLength="62" x="70.3943" y="456.4189">Subject topic</text><text fill="#000000" font-family="sans-serif" font-size="11" lengthAdjust="spacingAndGlyphs" textLength="87" x="70.3943" y="470.2549">DateTime datetime</text><text fill="#000000" font-family="sans-serif" font-size="11" lengthAdjust="spacingAndGlyphs" textLength="54" x="70.3943" y="484.0908">Room room</text><text fill="#000000" font-family="sans-serif" font-size="11" lengthAdjust="spacingAndGlyphs" textLength="69" x="70.3943" y="497.9268">Mentor mentor</text><text fill="#000000" font-family="sans-serif" font-size="11" lengthAdjust="spacingAndGlyphs" textLength="125" x="70.3943" y="511.7627">String recommendedLevel</text><text fill="#000000" font-family="sans-serif" font-size="11" lengthAdjust="spacingAndGlyphs" textLength="68" x="70.3943" y="525.5986">int attendance</text>
        <line style="stroke: #A80036; stroke-width: 1.5;" x1="65.3943" x2="200.3943" y1="532.0156" y2="532.0156" />
        <!--class Room-->
        <rect fill="#FEFECE" filter="url(#fnkjwsocvj0ol)" height="75.6719" id="Room" style="stroke: #A80036; stroke-width: 1.5;" width="69" x="46.3943" y="673" />
        <ellipse cx="62.7443" cy="689" fill="#ADD1B2" rx="11" ry="11" style="stroke: #A80036; stroke-width: 1.0;" />
        <path d="M65.5099,684.875 Q65.6662,684.6563 65.8537,684.5469 Q66.0412,684.4375 66.2599,684.4375 Q66.6349,684.4375 66.8693,684.6953 Q67.1037,684.9531 67.1037,685.5625 L67.1037,687.0156 Q67.1037,687.625 66.8693,687.8906 Q66.6349,688.1563 66.2599,688.1563 Q65.9162,688.1563 65.7131,687.9531 Q65.5099,687.7656 65.4006,687.25 Q65.3537,686.8906 65.1662,686.7031 Q64.8381,686.3281 64.2287,686.1094 Q63.6193,685.8906 62.9943,685.8906 Q62.2287,685.8906 61.5959,686.2188 Q60.9631,686.5469 60.4709,687.2969 Q59.9787,688.0469 59.9787,689.0781 L59.9787,690.1719 Q59.9787,691.4063 60.8693,692.2266 Q61.7599,693.0469 63.3537,693.0469 Q64.2912,693.0469 64.9474,692.7969 Q65.3381,692.6406 65.7599,692.2031 Q66.0256,691.9375 66.174,691.8594 Q66.3224,691.7813 66.5256,691.7813 Q66.8537,691.7813 67.1115,692.0391 Q67.3693,692.2969 67.3693,692.6406 Q67.3693,692.9844 67.0256,693.3906 Q66.5256,693.9688 65.7287,694.2969 Q64.6506,694.75 63.3537,694.75 Q61.8381,694.75 60.6349,694.125 Q59.6506,693.625 58.9631,692.5547 Q58.2756,691.4844 58.2756,690.2031 L58.2756,689.0469 Q58.2756,687.7188 58.8927,686.5703 Q59.5099,685.4219 60.6037,684.8047 Q61.6974,684.1875 62.9318,684.1875 Q63.6662,684.1875 64.3146,684.3516 Q64.9631,684.5156 65.5099,684.875 Z " /><text fill="#000000" font-family="sans-serif" font-size="12" lengthAdjust="spacingAndGlyphs" textLength="34" x="77.0443" y="693.9102">Room</text>
        <line style="stroke: #A80036; stroke-width: 1.5;" x1="47.3943" x2="114.3943" y1="705" y2="705" /><text fill="#000000" font-family="sans-serif" font-size="11" lengthAdjust="spacingAndGlyphs" textLength="57" x="52.3943" y="720.4189">String name</text><text fill="#000000" font-family="sans-serif" font-size="11" lengthAdjust="spacingAndGlyphs" textLength="55" x="52.3943" y="734.2549">int capacity</text>
        <line style="stroke: #A80036; stroke-width: 1.5;" x1="47.3943" x2="114.3943" y1="740.6719" y2="740.6719" />
        <!--class Mentor-->
        <rect fill="#FEFECE" filter="url(#fnkjwsocvj0ol)" height="89.5078" id="Mentor" style="stroke: #A80036; stroke-width: 1.5;" width="110" x="370.894" y="666" />
        <ellipse cx="404.344" cy="682" fill="#ADD1B2" rx="11" ry="11" style="stroke: #A80036; stroke-width: 1.0;" />
        <path d="M407.1096,677.875 Q407.2659,677.6563 407.4534,677.5469 Q407.6409,677.4375 407.8596,677.4375 Q408.2346,677.4375 408.469,677.6953 Q408.7034,677.9531 408.7034,678.5625 L408.7034,680.0156 Q408.7034,680.625 408.469,680.8906 Q408.2346,681.1563 407.8596,681.1563 Q407.5159,681.1563 407.3128,680.9531 Q407.1096,680.7656 407.0003,680.25 Q406.9534,679.8906 406.7659,679.7031 Q406.4378,679.3281 405.8284,679.1094 Q405.219,678.8906 404.594,678.8906 Q403.8284,678.8906 403.1956,679.2188 Q402.5628,679.5469 402.0706,680.2969 Q401.5784,681.0469 401.5784,682.0781 L401.5784,683.1719 Q401.5784,684.4063 402.469,685.2266 Q403.3596,686.0469 404.9534,686.0469 Q405.8909,686.0469 406.5471,685.7969 Q406.9378,685.6406 407.3596,685.2031 Q407.6253,684.9375 407.7737,684.8594 Q407.9221,684.7813 408.1253,684.7813 Q408.4534,684.7813 408.7112,685.0391 Q408.969,685.2969 408.969,685.6406 Q408.969,685.9844 408.6253,686.3906 Q408.1253,686.9688 407.3284,687.2969 Q406.2503,687.75 404.9534,687.75 Q403.4378,687.75 402.2346,687.125 Q401.2503,686.625 400.5628,685.5547 Q399.8753,684.4844 399.8753,683.2031 L399.8753,682.0469 Q399.8753,680.7188 400.4924,679.5703 Q401.1096,678.4219 402.2034,677.8047 Q403.2971,677.1875 404.5315,677.1875 Q405.2659,677.1875 405.9143,677.3516 Q406.5628,677.5156 407.1096,677.875 Z " /><text fill="#000000" font-family="sans-serif" font-size="12" lengthAdjust="spacingAndGlyphs" textLength="37" x="422.444" y="686.9102">Mentor</text>
        <line style="stroke: #A80036; stroke-width: 1.5;" x1="371.894" x2="479.894" y1="698" y2="698" /><text fill="#000000" font-family="sans-serif" font-size="11" lengthAdjust="spacingAndGlyphs" textLength="57" x="376.894" y="713.4189">String name</text><text fill="#000000" font-family="sans-serif" font-size="11" lengthAdjust="spacingAndGlyphs" textLength="98" x="376.894" y="727.2549">String contact_detail</text>
        <line style="stroke: #A80036; stroke-width: 1.5;" x1="371.894" x2="479.894" y1="733.6719" y2="733.6719" /><text fill="#000000" font-family="sans-serif" font-size="11" lengthAdjust="spacingAndGlyphs" textLength="44" x="376.894" y="749.0908">contact()</text>
        <!--class Teachers-->
        <rect fill="#FEFECE" filter="url(#fnkjwsocvj0ol)" height="75.6719" id="Teachers" style="stroke: #A80036; stroke-width: 1.5;" width="86" x="356.894" y="882" />
        <ellipse cx="372.794" cy="898" fill="#ADD1B2" rx="11" ry="11" style="stroke: #A80036; stroke-width: 1.0;" />
        <path d="M375.5596,893.875 Q375.7159,893.6563 375.9034,893.5469 Q376.0909,893.4375 376.3096,893.4375 Q376.6846,893.4375 376.919,893.6953 Q377.1534,893.9531 377.1534,894.5625 L377.1534,896.0156 Q377.1534,896.625 376.919,896.8906 Q376.6846,897.1563 376.3096,897.1563 Q375.9659,897.1563 375.7628,896.9531 Q375.5596,896.7656 375.4503,896.25 Q375.4034,895.8906 375.2159,895.7031 Q374.8878,895.3281 374.2784,895.1094 Q373.669,894.8906 373.044,894.8906 Q372.2784,894.8906 371.6456,895.2188 Q371.0128,895.5469 370.5206,896.2969 Q370.0284,897.0469 370.0284,898.0781 L370.0284,899.1719 Q370.0284,900.4063 370.919,901.2266 Q371.8096,902.0469 373.4034,902.0469 Q374.3409,902.0469 374.9971,901.7969 Q375.3878,901.6406 375.8096,901.2031 Q376.0753,900.9375 376.2237,900.8594 Q376.3721,900.7813 376.5753,900.7813 Q376.9034,900.7813 377.1612,901.0391 Q377.419,901.2969 377.419,901.6406 Q377.419,901.9844 377.0753,902.3906 Q376.5753,902.9688 375.7784,903.2969 Q374.7003,903.75 373.4034,903.75 Q371.8878,903.75 370.6846,903.125 Q369.7003,902.625 369.0128,901.5547 Q368.3253,900.4844 368.3253,899.2031 L368.3253,898.0469 Q368.3253,896.7188 368.9424,895.5703 Q369.5596,894.4219 370.6534,893.8047 Q371.7471,893.1875 372.9815,893.1875 Q373.7159,893.1875 374.3643,893.3516 Q375.0128,893.5156 375.5596,893.875 Z " /><text fill="#000000" font-family="sans-serif" font-size="12" lengthAdjust="spacingAndGlyphs" textLength="52" x="386.994" y="902.9102">Teachers</text>
        <line style="stroke: #A80036; stroke-width: 1.5;" x1="357.894" x2="441.894" y1="914" y2="914" /><text fill="#000000" font-family="sans-serif" font-size="11" lengthAdjust="spacingAndGlyphs" textLength="74" x="362.894" y="929.4189">Subject subject</text><text fill="#000000" font-family="sans-serif" font-size="11" lengthAdjust="spacingAndGlyphs" textLength="69" x="362.894" y="943.2549">Mentor mentor</text>
        <line style="stroke: #A80036; stroke-width: 1.5;" x1="357.894" x2="441.894" y1="949.6719" y2="949.6719" />
        <!--class Subject-->
        <rect fill="#FEFECE" filter="url(#fnkjwsocvj0ol)" height="75.6719" id="Subject" style="stroke: #A80036; stroke-width: 1.5;" width="73" x="288.394" y="1019" />
        <ellipse cx="303.394" cy="1035" fill="#ADD1B2" rx="11" ry="11" style="stroke: #A80036; stroke-width: 1.0;" />
        <path d="M306.1596,1030.875 Q306.3159,1030.6563 306.5034,1030.5469 Q306.6909,1030.4375 306.9096,1030.4375 Q307.2846,1030.4375 307.519,1030.6953 Q307.7534,1030.9531 307.7534,1031.5625 L307.7534,1033.0156 Q307.7534,1033.625 307.519,1033.8906 Q307.2846,1034.1563 306.9096,1034.1563 Q306.5659,1034.1563 306.3628,1033.9531 Q306.1596,1033.7656 306.0503,1033.25 Q306.0034,1032.8906 305.8159,1032.7031 Q305.4878,1032.3281 304.8784,1032.1094 Q304.269,1031.8906 303.644,1031.8906 Q302.8784,1031.8906 302.2456,1032.2188 Q301.6128,1032.5469 301.1206,1033.2969 Q300.6284,1034.0469 300.6284,1035.0781 L300.6284,1036.1719 Q300.6284,1037.4063 301.519,1038.2266 Q302.4096,1039.0469 304.0034,1039.0469 Q304.9409,1039.0469 305.5971,1038.7969 Q305.9878,1038.6406 306.4096,1038.2031 Q306.6753,1037.9375 306.8237,1037.8594 Q306.9721,1037.7813 307.1753,1037.7813 Q307.5034,1037.7813 307.7612,1038.0391 Q308.019,1038.2969 308.019,1038.6406 Q308.019,1038.9844 307.6753,1039.3906 Q307.1753,1039.9688 306.3784,1040.2969 Q305.3003,1040.75 304.0034,1040.75 Q302.4878,1040.75 301.2846,1040.125 Q300.3003,1039.625 299.6128,1038.5547 Q298.9253,1037.4844 298.9253,1036.2031 L298.9253,1035.0469 Q298.9253,1033.7188 299.5424,1032.5703 Q300.1596,1031.4219 301.2534,1030.8047 Q302.3471,1030.1875 303.5815,1030.1875 Q304.3159,1030.1875 304.9643,1030.3516 Q305.6128,1030.5156 306.1596,1030.875 Z " /><text fill="#000000" font-family="sans-serif" font-size="12" lengthAdjust="spacingAndGlyphs" textLength="41" x="317.394" y="1039.9102">Subject</text>
        <line style="stroke: #A80036; stroke-width: 1.5;" x1="289.394" x2="360.394" y1="1051" y2="1051" /><text fill="#000000" font-family="sans-serif" font-size="11" lengthAdjust="spacingAndGlyphs" textLength="57" x="294.394" y="1066.4189">String name</text><text fill="#000000" font-family="sans-serif" font-size="11" lengthAdjust="spacingAndGlyphs" textLength="36" x="294.394" y="1080.2549">int year</text>
        <line style="stroke: #A80036; stroke-width: 1.5;" x1="289.394" x2="360.394" y1="1086.6719" y2="1086.6719" />
        <!--class Resource-->
        <rect fill="#FEFECE" filter="url(#fnkjwsocvj0ol)" height="131.0156" id="Resource" style="stroke: #A80036; stroke-width: 1.5;" width="101" x="488.394" y="193" />
        <ellipse cx="510.144" cy="209" fill="#ADD1B2" rx="11" ry="11" style="stroke: #A80036; stroke-width: 1.0;" />
        <path d="M512.9096,204.875 Q513.0659,204.6563 513.2534,204.5469 Q513.4409,204.4375 513.6596,204.4375 Q514.0346,204.4375 514.269,204.6953 Q514.5034,204.9531 514.5034,205.5625 L514.5034,207.0156 Q514.5034,207.625 514.269,207.8906 Q514.0346,208.1563 513.6596,208.1563 Q513.3159,208.1563 513.1128,207.9531 Q512.9096,207.7656 512.8003,207.25 Q512.7534,206.8906 512.5659,206.7031 Q512.2378,206.3281 511.6284,206.1094 Q511.019,205.8906 510.394,205.8906 Q509.6284,205.8906 508.9956,206.2188 Q508.3628,206.5469 507.8706,207.2969 Q507.3784,208.0469 507.3784,209.0781 L507.3784,210.1719 Q507.3784,211.4063 508.269,212.2266 Q509.1596,213.0469 510.7534,213.0469 Q511.6909,213.0469 512.3471,212.7969 Q512.7378,212.6406 513.1596,212.2031 Q513.4253,211.9375 513.5737,211.8594 Q513.7221,211.7813 513.9253,211.7813 Q514.2534,211.7813 514.5112,212.0391 Q514.769,212.2969 514.769,212.6406 Q514.769,212.9844 514.4253,213.3906 Q513.9253,213.9688 513.1284,214.2969 Q512.0503,214.75 510.7534,214.75 Q509.2378,214.75 508.0346,214.125 Q507.0503,213.625 506.3628,212.5547 Q505.6753,211.4844 505.6753,210.2031 L505.6753,209.0469 Q505.6753,207.7188 506.2924,206.5703 Q506.9096,205.4219 508.0034,204.8047 Q509.0971,204.1875 510.3315,204.1875 Q511.0659,204.1875 511.7143,204.3516 Q512.3628,204.5156 512.9096,204.875 Z " /><text fill="#000000" font-family="sans-serif" font-size="12" lengthAdjust="spacingAndGlyphs" textLength="54" x="525.644" y="213.9102">Resource</text>
        <line style="stroke: #A80036; stroke-width: 1.5;" x1="489.394" x2="588.394" y1="225" y2="225" /><text fill="#000000" font-family="sans-serif" font-size="11" lengthAdjust="spacingAndGlyphs" textLength="74" x="494.394" y="240.4189">Subject subject</text><text fill="#000000" font-family="sans-serif" font-size="11" lengthAdjust="spacingAndGlyphs" textLength="68" x="494.394" y="254.2549">User uploader</text>
        <line style="stroke: #A80036; stroke-width: 1.5;" x1="489.394" x2="588.394" y1="260.6719" y2="260.6719" /><text fill="#000000" font-family="sans-serif" font-size="11" lengthAdjust="spacingAndGlyphs" textLength="52" x="494.394" y="276.0908">addTopic()</text><text fill="#000000" font-family="sans-serif" font-size="11" lengthAdjust="spacingAndGlyphs" textLength="70" x="494.394" y="289.9268">removeTopic()</text><text fill="#000000" font-family="sans-serif" font-size="11" lengthAdjust="spacingAndGlyphs" textLength="51" x="494.394" y="303.7627">editTopic()</text><text fill="#000000" font-family="sans-serif" font-size="11" lengthAdjust="spacingAndGlyphs" textLength="89" x="494.394" y="317.5986">searchResource()</text>
        <!--class User-->
        <rect fill="#FEFECE" filter="url(#fnkjwsocvj0ol)" height="48" id="User" style="stroke: #A80036; stroke-width: 1.5;" width="59" x="394.394" y="450.5" />
        <ellipse cx="409.394" cy="466.5" fill="#ADD1B2" rx="11" ry="11" style="stroke: #A80036; stroke-width: 1.0;" />
        <path d="M412.1596,462.375 Q412.3159,462.1563 412.5034,462.0469 Q412.6909,461.9375 412.9096,461.9375 Q413.2846,461.9375 413.519,462.1953 Q413.7534,462.4531 413.7534,463.0625 L413.7534,464.5156 Q413.7534,465.125 413.519,465.3906 Q413.2846,465.6563 412.9096,465.6563 Q412.5659,465.6563 412.3628,465.4531 Q412.1596,465.2656 412.0503,464.75 Q412.0034,464.3906 411.8159,464.2031 Q411.4878,463.8281 410.8784,463.6094 Q410.269,463.3906 409.644,463.3906 Q408.8784,463.3906 408.2456,463.7188 Q407.6128,464.0469 407.1206,464.7969 Q406.6284,465.5469 406.6284,466.5781 L406.6284,467.6719 Q406.6284,468.9063 407.519,469.7266 Q408.4096,470.5469 410.0034,470.5469 Q410.9409,470.5469 411.5971,470.2969 Q411.9878,470.1406 412.4096,469.7031 Q412.6753,469.4375 412.8237,469.3594 Q412.9721,469.2813 413.1753,469.2813 Q413.5034,469.2813 413.7612,469.5391 Q414.019,469.7969 414.019,470.1406 Q414.019,470.4844 413.6753,470.8906 Q413.1753,471.4688 412.3784,471.7969 Q411.3003,472.25 410.0034,472.25 Q408.4878,472.25 407.2846,471.625 Q406.3003,471.125 405.6128,470.0547 Q404.9253,468.9844 404.9253,467.7031 L404.9253,466.5469 Q404.9253,465.2188 405.5424,464.0703 Q406.1596,462.9219 407.2534,462.3047 Q408.3471,461.6875 409.5815,461.6875 Q410.3159,461.6875 410.9643,461.8516 Q411.6128,462.0156 412.1596,462.375 Z " /><text fill="#000000" font-family="sans-serif" font-size="12" lengthAdjust="spacingAndGlyphs" textLength="27" x="423.394" y="471.4102">User</text>
        <line style="stroke: #A80036; stroke-width: 1.5;" x1="395.394" x2="452.394" y1="482.5" y2="482.5" />
        <line style="stroke: #A80036; stroke-width: 1.5;" x1="395.394" x2="452.394" y1="490.5" y2="490.5" />
        <!--class Student-->
        <rect fill="#FEFECE" filter="url(#fnkjwsocvj0ol)" height="186.3594" id="Student" style="stroke: #A80036; stroke-width: 1.5;" width="141" x="150.394" y="618" />
        <ellipse cx="195.644" cy="634" fill="#ADD1B2" rx="11" ry="11" style="stroke: #A80036; stroke-width: 1.0;" />
        <path d="M198.4096,629.875 Q198.5659,629.6563 198.7534,629.5469 Q198.9409,629.4375 199.1596,629.4375 Q199.5346,629.4375 199.769,629.6953 Q200.0034,629.9531 200.0034,630.5625 L200.0034,632.0156 Q200.0034,632.625 199.769,632.8906 Q199.5346,633.1563 199.1596,633.1563 Q198.8159,633.1563 198.6128,632.9531 Q198.4096,632.7656 198.3003,632.25 Q198.2534,631.8906 198.0659,631.7031 Q197.7378,631.3281 197.1284,631.1094 Q196.519,630.8906 195.894,630.8906 Q195.1284,630.8906 194.4956,631.2188 Q193.8628,631.5469 193.3706,632.2969 Q192.8784,633.0469 192.8784,634.0781 L192.8784,635.1719 Q192.8784,636.4063 193.769,637.2266 Q194.6596,638.0469 196.2534,638.0469 Q197.1909,638.0469 197.8471,637.7969 Q198.2378,637.6406 198.6596,637.2031 Q198.9253,636.9375 199.0737,636.8594 Q199.2221,636.7813 199.4253,636.7813 Q199.7534,636.7813 200.0112,637.0391 Q200.269,637.2969 200.269,637.6406 Q200.269,637.9844 199.9253,638.3906 Q199.4253,638.9688 198.6284,639.2969 Q197.5503,639.75 196.2534,639.75 Q194.7378,639.75 193.5346,639.125 Q192.5503,638.625 191.8628,637.5547 Q191.1753,636.4844 191.1753,635.2031 L191.1753,634.0469 Q191.1753,632.7188 191.7924,631.5703 Q192.4096,630.4219 193.5034,629.8047 Q194.5971,629.1875 195.8315,629.1875 Q196.5659,629.1875 197.2143,629.3516 Q197.8628,629.5156 198.4096,629.875 Z " /><text fill="#000000" font-family="sans-serif" font-size="12" lengthAdjust="spacingAndGlyphs" textLength="42" x="216.144" y="638.9102">Student</text>
        <line style="stroke: #A80036; stroke-width: 1.5;" x1="151.394" x2="290.394" y1="650" y2="650" /><text fill="#000000" font-family="sans-serif" font-size="11" lengthAdjust="spacingAndGlyphs" textLength="57" x="156.394" y="665.4189">String name</text><text fill="#000000" font-family="sans-serif" font-size="11" lengthAdjust="spacingAndGlyphs" textLength="36" x="156.394" y="679.2549">int year</text><text fill="#000000" font-family="sans-serif" font-size="11" lengthAdjust="spacingAndGlyphs" textLength="39" x="156.394" y="693.0908">String Id</text><text fill="#000000" font-family="sans-serif" font-size="11" lengthAdjust="spacingAndGlyphs" textLength="129" x="156.394" y="706.9268">Lesson[] attendedLessons</text><text fill="#000000" font-family="sans-serif" font-size="11" lengthAdjust="spacingAndGlyphs" textLength="73" x="156.394" y="720.7627">Result[] grades</text>
        <line style="stroke: #A80036; stroke-width: 1.5;" x1="151.394" x2="290.394" y1="727.1797" y2="727.1797" /><text fill="#000000" font-family="sans-serif" font-size="11" lengthAdjust="spacingAndGlyphs" textLength="74" x="156.394" y="742.5986">attendLesson()</text><text fill="#000000" font-family="sans-serif" font-size="11" lengthAdjust="spacingAndGlyphs" textLength="79" x="156.394" y="756.4346">getAttendance()</text><text fill="#000000" font-family="sans-serif" font-size="11" lengthAdjust="spacingAndGlyphs" textLength="92" x="156.394" y="770.2705">verifyAttendance()</text><text fill="#000000" font-family="sans-serif" font-size="11" lengthAdjust="spacingAndGlyphs" textLength="85" x="156.394" y="784.1064">updateProgress()</text><text fill="#000000" font-family="sans-serif" font-size="11" lengthAdjust="spacingAndGlyphs" textLength="67" x="156.394" y="797.9424">getProgress()</text>
        <!--class Resources-->
        <rect fill="#FEFECE" filter="url(#fnkjwsocvj0ol)" height="117.1797" id="Resources" style="stroke: #A80036; stroke-width: 1.5;" width="118" x="402.894" y="8" />
        <ellipse cx="429.144" cy="24" fill="#ADD1B2" rx="11" ry="11" style="stroke: #A80036; stroke-width: 1.0;" />
        <path d="M431.9096,19.875 Q432.0659,19.6563 432.2534,19.5469 Q432.4409,19.4375 432.6596,19.4375 Q433.0346,19.4375 433.269,19.6953 Q433.5034,19.9531 433.5034,20.5625 L433.5034,22.0156 Q433.5034,22.625 433.269,22.8906 Q433.0346,23.1563 432.6596,23.1563 Q432.3159,23.1563 432.1128,22.9531 Q431.9096,22.7656 431.8003,22.25 Q431.7534,21.8906 431.5659,21.7031 Q431.2378,21.3281 430.6284,21.1094 Q430.019,20.8906 429.394,20.8906 Q428.6284,20.8906 427.9956,21.2188 Q427.3628,21.5469 426.8706,22.2969 Q426.3784,23.0469 426.3784,24.0781 L426.3784,25.1719 Q426.3784,26.4063 427.269,27.2266 Q428.1596,28.0469 429.7534,28.0469 Q430.6909,28.0469 431.3471,27.7969 Q431.7378,27.6406 432.1596,27.2031 Q432.4253,26.9375 432.5737,26.8594 Q432.7221,26.7813 432.9253,26.7813 Q433.2534,26.7813 433.5112,27.0391 Q433.769,27.2969 433.769,27.6406 Q433.769,27.9844 433.4253,28.3906 Q432.9253,28.9688 432.1284,29.2969 Q431.0503,29.75 429.7534,29.75 Q428.2378,29.75 427.0346,29.125 Q426.0503,28.625 425.3628,27.5547 Q424.6753,26.4844 424.6753,25.2031 L424.6753,24.0469 Q424.6753,22.7188 425.2924,21.5703 Q425.9096,20.4219 427.0034,19.8047 Q428.0971,19.1875 429.3315,19.1875 Q430.0659,19.1875 430.7143,19.3516 Q431.3628,19.5156 431.9096,19.875 Z " /><text fill="#000000" font-family="sans-serif" font-size="12" lengthAdjust="spacingAndGlyphs" textLength="61" x="445.644" y="28.9102">Resources</text>
        <line style="stroke: #A80036; stroke-width: 1.5;" x1="403.894" x2="519.894" y1="40" y2="40" /><text fill="#000000" font-family="sans-serif" font-size="11" lengthAdjust="spacingAndGlyphs" textLength="106" x="408.894" y="55.4189">Resource[] resources</text>
        <line style="stroke: #A80036; stroke-width: 1.5;" x1="403.894" x2="519.894" y1="61.8359" y2="61.8359" /><text fill="#000000" font-family="sans-serif" font-size="11" lengthAdjust="spacingAndGlyphs" textLength="73" x="408.894" y="77.2549">addResource()</text><text fill="#000000" font-family="sans-serif" font-size="11" lengthAdjust="spacingAndGlyphs" textLength="72" x="408.894" y="91.0908">editResource()</text><text fill="#000000" font-family="sans-serif" font-size="11" lengthAdjust="spacingAndGlyphs" textLength="91" x="408.894" y="104.9268">removeResource()</text><text fill="#000000" font-family="sans-serif" font-size="11" lengthAdjust="spacingAndGlyphs" textLength="70" x="408.894" y="118.7627">getResource()</text>
        <!--class Result-->
        <rect fill="#FEFECE" filter="url(#fnkjwsocvj0ol)" height="75.6719" id="Result" style="stroke: #A80036; stroke-width: 1.5;" width="86" x="229.894" y="882" />
        <ellipse cx="252.994" cy="898" fill="#ADD1B2" rx="11" ry="11" style="stroke: #A80036; stroke-width: 1.0;" />
        <path d="M255.7596,893.875 Q255.9159,893.6563 256.1034,893.5469 Q256.2909,893.4375 256.5096,893.4375 Q256.8846,893.4375 257.119,893.6953 Q257.3534,893.9531 257.3534,894.5625 L257.3534,896.0156 Q257.3534,896.625 257.119,896.8906 Q256.8846,897.1563 256.5096,897.1563 Q256.1659,897.1563 255.9628,896.9531 Q255.7596,896.7656 255.6503,896.25 Q255.6034,895.8906 255.4159,895.7031 Q255.0878,895.3281 254.4784,895.1094 Q253.869,894.8906 253.244,894.8906 Q252.4784,894.8906 251.8456,895.2188 Q251.2128,895.5469 250.7206,896.2969 Q250.2284,897.0469 250.2284,898.0781 L250.2284,899.1719 Q250.2284,900.4063 251.119,901.2266 Q252.0096,902.0469 253.6034,902.0469 Q254.5409,902.0469 255.1971,901.7969 Q255.5878,901.6406 256.0096,901.2031 Q256.2753,900.9375 256.4237,900.8594 Q256.5721,900.7813 256.7753,900.7813 Q257.1034,900.7813 257.3612,901.0391 Q257.619,901.2969 257.619,901.6406 Q257.619,901.9844 257.2753,902.3906 Q256.7753,902.9688 255.9784,903.2969 Q254.9003,903.75 253.6034,903.75 Q252.0878,903.75 250.8846,903.125 Q249.9003,902.625 249.2128,901.5547 Q248.5253,900.4844 248.5253,899.2031 L248.5253,898.0469 Q248.5253,896.7188 249.1424,895.5703 Q249.7596,894.4219 250.8534,893.8047 Q251.9471,893.1875 253.1815,893.1875 Q253.9159,893.1875 254.5643,893.3516 Q255.2128,893.5156 255.7596,893.875 Z " /><text fill="#000000" font-family="sans-serif" font-size="12" lengthAdjust="spacingAndGlyphs" textLength="36" x="268.794" y="902.9102">Result</text>
        <line style="stroke: #A80036; stroke-width: 1.5;" x1="230.894" x2="314.894" y1="914" y2="914" /><text fill="#000000" font-family="sans-serif" font-size="11" lengthAdjust="spacingAndGlyphs" textLength="74" x="235.894" y="929.4189">Subject subject</text><text fill="#000000" font-family="sans-serif" font-size="11" lengthAdjust="spacingAndGlyphs" textLength="41" x="235.894" y="943.2549">int result</text>
        <line style="stroke: #A80036; stroke-width: 1.5;" x1="230.894" x2="314.894" y1="949.6719" y2="949.6719" />
        <!--link Timetable to Lesson-->
        <path d="M132.894,344.253 C132.894,365.762 132.894,388.525 132.894,408.856 " fill="none" id="Timetable-Lesson" style="stroke: #A80036; stroke-width: 1.0;" />
        <polygon fill="#FFFFFF" points="132.894,331.056,128.894,337.056,132.894,343.056,136.894,337.056,132.894,331.056" style="stroke: #A80036; stroke-width: 1.0;" /><text fill="#000000" font-family="sans-serif" font-size="13" lengthAdjust="spacingAndGlyphs" textLength="7" x="125.5604" y="352.2529">1</text><text fill="#000000" font-family="sans-serif" font-size="13" lengthAdjust="spacingAndGlyphs" textLength="5" x="127.6205" y="398.3147">*</text>
        <!--link Lesson to Room-->
        <path d="M104.1615,540.03 C100.5747,549.92 97.3211,560.126 94.8943,570 C86.4699,604.277 83.0954,644.463 81.7539,672.967 " fill="none" id="Lesson-Room" style="stroke: #A80036; stroke-width: 1.0;" /><text fill="#000000" font-family="sans-serif" font-size="13" lengthAdjust="spacingAndGlyphs" textLength="63" x="95.8943" y="584.4951">happens in</text><text fill="#000000" font-family="sans-serif" font-size="13" lengthAdjust="spacingAndGlyphs" textLength="7" x="93.636" y="561.5858">1</text><text fill="#000000" font-family="sans-serif" font-size="13" lengthAdjust="spacingAndGlyphs" textLength="7" x="74.2671" y="662.0374">1</text>
        <!--link Lesson to Mentor-->
        <path d="M201.59,530.48 C253.179,571.769 322.902,627.571 370.846,665.943 " fill="none" id="Lesson-Mentor" style="stroke: #A80036; stroke-width: 1.0;" /><text fill="#000000" font-family="sans-serif" font-size="13" lengthAdjust="spacingAndGlyphs" textLength="54" x="271.894" y="584.4951">taught by</text><text fill="#000000" font-family="sans-serif" font-size="13" lengthAdjust="spacingAndGlyphs" textLength="7" x="209.4864" y="533.2413">1</text><text fill="#000000" font-family="sans-serif" font-size="13" lengthAdjust="spacingAndGlyphs" textLength="20" x="342.9183" y="657.0232">1..*</text>
        <!--link Mentor to Teachers-->
        <path d="M420.349,756.153 C415.651,793.555 408.991,846.575 404.562,881.838 " fill="none" id="Mentor-Teachers" style="stroke: #A80036; stroke-width: 1.0;" /><text fill="#000000" font-family="sans-serif" font-size="13" lengthAdjust="spacingAndGlyphs" textLength="7" x="412.1336" y="776.8472">1</text><text fill="#000000" font-family="sans-serif" font-size="13" lengthAdjust="spacingAndGlyphs" textLength="5" x="399.9482" y="871.171">*</text>
        <!--link Teachers to Subject-->
        <path d="M379.202,958.247 C368.709,977.134 356.003,1000.005 345.519,1018.8748 " fill="none" id="Teachers-Subject" style="stroke: #A80036; stroke-width: 1.0;" /><text fill="#000000" font-family="sans-serif" font-size="13" lengthAdjust="spacingAndGlyphs" textLength="5" x="370.5058" y="979.1669">*</text><text fill="#000000" font-family="sans-serif" font-size="13" lengthAdjust="spacingAndGlyphs" textLength="7" x="341.5694" y="1008.2144">1</text>
        <!--link Resource to User-->
        <path d="M498.767,324.228 C491.613,336.333 484.381,348.965 477.894,361 C461.551,391.323 444.678,427.377 434.238,450.346 " fill="none" id="Resource-User" style="stroke: #A80036; stroke-width: 1.0;" /><text fill="#000000" font-family="sans-serif" font-size="13" lengthAdjust="spacingAndGlyphs" textLength="45" x="478.894" y="375.4951">uploads</text><text fill="#000000" font-family="sans-serif" font-size="13" lengthAdjust="spacingAndGlyphs" textLength="5" x="489.3711" y="345.3436">*</text><text fill="#000000" font-family="sans-serif" font-size="13" lengthAdjust="spacingAndGlyphs" textLength="7" x="428.9918" y="439.6467">1</text>
        <!--link User to Student-->
        <path d="M403.26,516.742 C391.218,538.927 374.878,566.139 356.894,588 C337.65,611.394 313.838,634.311 291.544,653.853 " fill="none" id="User-Student" style="stroke: #A80036; stroke-width: 1.0; stroke-dasharray: 7.0,7.0;" />
        <polygon fill="none" points="397.18,513.263,412.668,498.802,409.579,519.765,397.18,513.263" style="stroke: #A80036; stroke-width: 1.0;" />
        <!--link User to Mentor-->
        <path d="M424.266,519.095 C424.622,560.876 425.158,623.626 425.516,665.655 " fill="none" id="User-Mentor" style="stroke: #A80036; stroke-width: 1.0; stroke-dasharray: 7.0,7.0;" />
        <polygon fill="none" points="417.264,518.901,424.093,498.842,431.264,518.782,417.264,518.901" style="stroke: #A80036; stroke-width: 1.0;" />
        <!--link Resource to Subject-->
        <path d="M544.403,324.063 C547.557,366.501 550.894,423.265 550.894,473.5 C550.894,473.5 550.894,473.5 550.894,921 C550.894,1008.179 425.419,1040.3928 361.456,1051.1507 " fill="none" id="Resource-Subject" style="stroke: #A80036; stroke-width: 1.0;" /><text fill="#000000" font-family="sans-serif" font-size="13" lengthAdjust="spacingAndGlyphs" textLength="21" x="551.894" y="716.4951">has</text><text fill="#000000" font-family="sans-serif" font-size="13" lengthAdjust="spacingAndGlyphs" textLength="7" x="537.6227" y="345.6224">1</text><text fill="#000000" font-family="sans-serif" font-size="13" lengthAdjust="spacingAndGlyphs" textLength="7" x="369.3432" y="1045.9861">1</text>
        <!--link Resources to Resource-->
        <path d="M490.094,137.085 C497.484,155.319 505.42,174.901 512.7,192.864 " fill="none" id="Resources-Resource" style="stroke: #A80036; stroke-width: 1.0;" />
        <polygon fill="#FFFFFF" points="485.206,125.022,483.7527,132.0851,489.7136,136.1432,491.1669,129.0801,485.206,125.022" style="stroke: #A80036; stroke-width: 1.0;" />
        <!--link Lesson to Subject-->
        <path d="M72.4832,540.154 C54.9141,563.019 38.0101,590.046 28.8943,618 C3.2646,696.593 -5.7742,728.954 28.8943,804 C83.0959,921.328 221.841,1004.1352 288.314,1038.414 " fill="none" id="Lesson-Subject" style="stroke: #A80036; stroke-width: 1.0;" /><text fill="#000000" font-family="sans-serif" font-size="13" lengthAdjust="spacingAndGlyphs" textLength="21" x="55.8943" y="848.4951">has</text><text fill="#000000" font-family="sans-serif" font-size="13" lengthAdjust="spacingAndGlyphs" textLength="7" x="58.4929" y="561.7234">1</text><text fill="#000000" font-family="sans-serif" font-size="13" lengthAdjust="spacingAndGlyphs" textLength="7" x="273.4233" y="1030.7419">1</text>
        <!--link Lesson to Student-->
        <path d="M157.174,540.199 C166.178,564.194 176.572,591.892 186.319,617.865 " fill="none" id="Lesson-Student" style="stroke: #A80036; stroke-width: 1.0;" /><text fill="#000000" font-family="sans-serif" font-size="13" lengthAdjust="spacingAndGlyphs" textLength="43" x="175.894" y="584.4951">attends</text><text fill="#000000" font-family="sans-serif" font-size="13" lengthAdjust="spacingAndGlyphs" textLength="7" x="152.3169" y="561.3116">1</text><text fill="#000000" font-family="sans-serif" font-size="13" lengthAdjust="spacingAndGlyphs" textLength="5" x="178.3646" y="607.3006">*</text>
        <!--link Resources to User-->
        <path d="M450.288,125.162 C446.78,144.436 443.24,166.08 440.894,186 C429.374,283.825 425.517,401.342 424.351,450.315 " fill="none" id="Resources-User" style="stroke: #A80036; stroke-width: 1.0;" /><text fill="#000000" font-family="sans-serif" font-size="13" lengthAdjust="spacingAndGlyphs" textLength="28" x="441.894" y="263.9951">uses</text>
        <!--link Student to Mentor-->
        <path d="M291.444,711 C317.387,711 346.365,711 370.756,711 " fill="none" id="Student-Mentor" style="stroke: #A80036; stroke-width: 1.0;" /><text fill="#000000" font-family="sans-serif" font-size="13" lengthAdjust="spacingAndGlyphs" textLength="43" x="309.644" y="704.4951">contact</text>
        <!--link Student to Result-->
        <path d="M244.081,804.3 C250.96,831.685 258.105,860.127 263.559,881.839 " fill="none" id="Student-Result" style="stroke: #A80036; stroke-width: 1.0;" /><text fill="#000000" font-family="sans-serif" font-size="13" lengthAdjust="spacingAndGlyphs" textLength="21" x="255.894" y="848.4951">has</text>
        <!--link Result to Subject-->
        <path d="M287.241,958.247 C294.516,977.134 303.326,1000.005 310.594,1018.8748 " fill="none" id="Result-Subject" style="stroke: #A80036; stroke-width: 1.0;" />
        <!--
@startuml

Timetable "1" o- - "*" Lesson
Lesson "1" - - "1" Room : happens in
Lesson "1" - - "1..*" Mentor : taught by

Mentor "1" - - "*" Teachers
Teachers "*" - - "1" Subject
Resource "*" - - "1" User : uploads
User <|.. Student
User <|.. Mentor
Resource "1" - - "1" Subject : has
Resources o- - Resource
Lesson "1" - - "1" Subject : has
Lesson "1" - - "*" Student : attends
Resources - - User : uses

class Timetable {
  Lesson[] lessons
  addLesson()
  removeLesson()
  changeLesson()
  showTimetable()
  searchLessons()
  bookClass()
}

class Lesson {
  Subject topic
  DateTime datetime
  Room room
  Mentor mentor
  String recommendedLevel
  int attendance
}

class Room {
  String name
  int capacity
}

class Mentor {
  String name
  String contact_detail
  contact()
}

Student - Mentor : contact

class Resources {
  Resource[] resources
  addResource()
  editResource()
  removeResource()
  getResource()
}

class Resource {
  Subject subject
  User uploader
  addTopic()
  removeTopic()
  editTopic()
  searchResource()
}

class Student {
  String name
  int year
  String Id
  Lesson[] attendedLessons
  Result[] grades
  attendLesson()
  getAttendance()
  verifyAttendance()
  updateProgress()
  getProgress()
}

Student - - Result : has
Result - - Subject

class Result {
  Subject subject
  int result
}

class Subject {
  String name
  int year
}

class Teachers {
  Subject subject
  Mentor mentor
}

@enduml

PlantUML version 1.2019.01(Sat Feb 09 15:32:04 GMT 2019)
(GPL source distribution)
Java Runtime: Java(TM) SE Runtime Environment
JVM: Java HotSpot(TM) Client VM
Java Version: 1.8.0_191-b12
Operating System: Windows 10
OS Version: 10.0
Default Encoding: Cp1252
Language: en
Country: GB
-->
    </g>
</svg>