<?xml version="1.0" encoding="UTF-8" standalone="no"?><svg xmlns="http://www.w3.org/2000/svg" xmlns:xlink="http://www.w3.org/1999/xlink" contentScriptType="application/ecmascript" contentStyleType="text/css" height="994px" preserveAspectRatio="none" style="width:547px;height:994px;" version="1.1" viewBox="0 0 547 994" width="547px" zoomAndPan="magnify">
    <defs>
        <filter height="300%" id="fkdgd1osizikd" width="300%" x="-1" y="-1">
            <feGaussianBlur result="blurOut" stdDeviation="2.0" />
            <feColorMatrix in="blurOut" result="blurOut2" type="matrix" values="0 0 0 0 0 0 0 0 0 0 0 0 0 0 0 0 0 0 .4 0" />
            <feOffset dx="4.0" dy="4.0" in="blurOut2" result="blurOut3" />
            <feBlend in="SourceGraphic" in2="blurOut3" mode="normal" />
        </filter>
    </defs>
    <g>
        <!--class Timetable-->
        <rect fill="#FEFECE" filter="url(#fkdgd1osizikd)" height="144.8516" id="Timetable" style="stroke: #A80036; stroke-width: 1.5;" width="96" x="142.5" y="171" />
        <ellipse cx="161.55" cy="187" fill="#ADD1B2" rx="11" ry="11" style="stroke: #A80036; stroke-width: 1.0;" />
        <path d="M164.3156,182.875 Q164.4719,182.6563 164.6594,182.5469 Q164.8469,182.4375 165.0656,182.4375 Q165.4406,182.4375 165.675,182.6953 Q165.9094,182.9531 165.9094,183.5625 L165.9094,185.0156 Q165.9094,185.625 165.675,185.8906 Q165.4406,186.1563 165.0656,186.1563 Q164.7219,186.1563 164.5188,185.9531 Q164.3156,185.7656 164.2063,185.25 Q164.1594,184.8906 163.9719,184.7031 Q163.6438,184.3281 163.0344,184.1094 Q162.425,183.8906 161.8,183.8906 Q161.0344,183.8906 160.4016,184.2188 Q159.7688,184.5469 159.2766,185.2969 Q158.7844,186.0469 158.7844,187.0781 L158.7844,188.1719 Q158.7844,189.4063 159.675,190.2266 Q160.5656,191.0469 162.1594,191.0469 Q163.0969,191.0469 163.7531,190.7969 Q164.1438,190.6406 164.5656,190.2031 Q164.8313,189.9375 164.9797,189.8594 Q165.1281,189.7813 165.3313,189.7813 Q165.6594,189.7813 165.9172,190.0391 Q166.175,190.2969 166.175,190.6406 Q166.175,190.9844 165.8313,191.3906 Q165.3313,191.9688 164.5344,192.2969 Q163.4563,192.75 162.1594,192.75 Q160.6438,192.75 159.4406,192.125 Q158.4563,191.625 157.7688,190.5547 Q157.0813,189.4844 157.0813,188.2031 L157.0813,187.0469 Q157.0813,185.7188 157.6984,184.5703 Q158.3156,183.4219 159.4094,182.8047 Q160.5031,182.1875 161.7375,182.1875 Q162.4719,182.1875 163.1203,182.3516 Q163.7688,182.5156 164.3156,182.875 Z " /><text fill="#000000" font-family="sans-serif" font-size="12" lengthAdjust="spacingAndGlyphs" textLength="55" x="176.45" y="191.9102">Timetable</text>
        <line style="stroke: #A80036; stroke-width: 1.5;" x1="143.5" x2="237.5" y1="203" y2="203" /><text fill="#000000" font-family="sans-serif" font-size="11" lengthAdjust="spacingAndGlyphs" textLength="83" x="148.5" y="218.4189">Lesson[] lessons</text>
        <line style="stroke: #A80036; stroke-width: 1.5;" x1="143.5" x2="237.5" y1="224.8359" y2="224.8359" /><text fill="#000000" font-family="sans-serif" font-size="11" lengthAdjust="spacingAndGlyphs" textLength="62" x="148.5" y="240.2549">addLesson()</text><text fill="#000000" font-family="sans-serif" font-size="11" lengthAdjust="spacingAndGlyphs" textLength="80" x="148.5" y="254.0908">removeLesson()</text><text fill="#000000" font-family="sans-serif" font-size="11" lengthAdjust="spacingAndGlyphs" textLength="80" x="148.5" y="267.9268">changeLesson()</text><text fill="#000000" font-family="sans-serif" font-size="11" lengthAdjust="spacingAndGlyphs" textLength="81" x="148.5" y="281.7627">showTimetable()</text><text fill="#000000" font-family="sans-serif" font-size="11" lengthAdjust="spacingAndGlyphs" textLength="84" x="148.5" y="295.5986">searchLessons()</text><text fill="#000000" font-family="sans-serif" font-size="11" lengthAdjust="spacingAndGlyphs" textLength="58" x="148.5" y="309.4346">bookClass()</text>
        <!--class Lesson-->
        <rect fill="#FEFECE" filter="url(#fkdgd1osizikd)" height="131.0156" id="Lesson" style="stroke: #A80036; stroke-width: 1.5;" width="137" x="122" y="376" />
        <ellipse cx="165.35" cy="392" fill="#ADD1B2" rx="11" ry="11" style="stroke: #A80036; stroke-width: 1.0;" />
        <path d="M168.1156,387.875 Q168.2719,387.6563 168.4594,387.5469 Q168.6469,387.4375 168.8656,387.4375 Q169.2406,387.4375 169.475,387.6953 Q169.7094,387.9531 169.7094,388.5625 L169.7094,390.0156 Q169.7094,390.625 169.475,390.8906 Q169.2406,391.1563 168.8656,391.1563 Q168.5219,391.1563 168.3188,390.9531 Q168.1156,390.7656 168.0063,390.25 Q167.9594,389.8906 167.7719,389.7031 Q167.4438,389.3281 166.8344,389.1094 Q166.225,388.8906 165.6,388.8906 Q164.8344,388.8906 164.2016,389.2188 Q163.5688,389.5469 163.0766,390.2969 Q162.5844,391.0469 162.5844,392.0781 L162.5844,393.1719 Q162.5844,394.4063 163.475,395.2266 Q164.3656,396.0469 165.9594,396.0469 Q166.8969,396.0469 167.5531,395.7969 Q167.9438,395.6406 168.3656,395.2031 Q168.6313,394.9375 168.7797,394.8594 Q168.9281,394.7813 169.1313,394.7813 Q169.4594,394.7813 169.7172,395.0391 Q169.975,395.2969 169.975,395.6406 Q169.975,395.9844 169.6313,396.3906 Q169.1313,396.9688 168.3344,397.2969 Q167.2563,397.75 165.9594,397.75 Q164.4438,397.75 163.2406,397.125 Q162.2563,396.625 161.5688,395.5547 Q160.8813,394.4844 160.8813,393.2031 L160.8813,392.0469 Q160.8813,390.7188 161.4984,389.5703 Q162.1156,388.4219 163.2094,387.8047 Q164.3031,387.1875 165.5375,387.1875 Q166.2719,387.1875 166.9203,387.3516 Q167.5688,387.5156 168.1156,387.875 Z " /><text fill="#000000" font-family="sans-serif" font-size="12" lengthAdjust="spacingAndGlyphs" textLength="42" x="185.65" y="396.9102">Lesson</text>
        <line style="stroke: #A80036; stroke-width: 1.5;" x1="123" x2="258" y1="408" y2="408" /><text fill="#000000" font-family="sans-serif" font-size="11" lengthAdjust="spacingAndGlyphs" textLength="62" x="128" y="423.4189">Subject topic</text><text fill="#000000" font-family="sans-serif" font-size="11" lengthAdjust="spacingAndGlyphs" textLength="87" x="128" y="437.2549">DateTime datetime</text><text fill="#000000" font-family="sans-serif" font-size="11" lengthAdjust="spacingAndGlyphs" textLength="54" x="128" y="451.0908">Room room</text><text fill="#000000" font-family="sans-serif" font-size="11" lengthAdjust="spacingAndGlyphs" textLength="69" x="128" y="464.9268">Mentor mentor</text><text fill="#000000" font-family="sans-serif" font-size="11" lengthAdjust="spacingAndGlyphs" textLength="125" x="128" y="478.7627">String recommendedLevel</text><text fill="#000000" font-family="sans-serif" font-size="11" lengthAdjust="spacingAndGlyphs" textLength="68" x="128" y="492.5986">int attendance</text>
        <line style="stroke: #A80036; stroke-width: 1.5;" x1="123" x2="258" y1="499.0156" y2="499.0156" />
        <!--class Room-->
        <rect fill="#FEFECE" filter="url(#fkdgd1osizikd)" height="75.6719" id="Room" style="stroke: #A80036; stroke-width: 1.5;" width="69" x="6" y="601.5" />
        <ellipse cx="22.35" cy="617.5" fill="#ADD1B2" rx="11" ry="11" style="stroke: #A80036; stroke-width: 1.0;" />
        <path d="M25.1156,613.375 Q25.2719,613.1563 25.4594,613.0469 Q25.6469,612.9375 25.8656,612.9375 Q26.2406,612.9375 26.475,613.1953 Q26.7094,613.4531 26.7094,614.0625 L26.7094,615.5156 Q26.7094,616.125 26.475,616.3906 Q26.2406,616.6563 25.8656,616.6563 Q25.5219,616.6563 25.3188,616.4531 Q25.1156,616.2656 25.0063,615.75 Q24.9594,615.3906 24.7719,615.2031 Q24.4438,614.8281 23.8344,614.6094 Q23.225,614.3906 22.6,614.3906 Q21.8344,614.3906 21.2016,614.7188 Q20.5688,615.0469 20.0766,615.7969 Q19.5844,616.5469 19.5844,617.5781 L19.5844,618.6719 Q19.5844,619.9063 20.475,620.7266 Q21.3656,621.5469 22.9594,621.5469 Q23.8969,621.5469 24.5531,621.2969 Q24.9438,621.1406 25.3656,620.7031 Q25.6313,620.4375 25.7797,620.3594 Q25.9281,620.2813 26.1313,620.2813 Q26.4594,620.2813 26.7172,620.5391 Q26.975,620.7969 26.975,621.1406 Q26.975,621.4844 26.6313,621.8906 Q26.1313,622.4688 25.3344,622.7969 Q24.2563,623.25 22.9594,623.25 Q21.4438,623.25 20.2406,622.625 Q19.2563,622.125 18.5688,621.0547 Q17.8813,619.9844 17.8813,618.7031 L17.8813,617.5469 Q17.8813,616.2188 18.4984,615.0703 Q19.1156,613.9219 20.2094,613.3047 Q21.3031,612.6875 22.5375,612.6875 Q23.2719,612.6875 23.9203,612.8516 Q24.5688,613.0156 25.1156,613.375 Z " /><text fill="#000000" font-family="sans-serif" font-size="12" lengthAdjust="spacingAndGlyphs" textLength="34" x="36.65" y="622.4102">Room</text>
        <line style="stroke: #A80036; stroke-width: 1.5;" x1="7" x2="74" y1="633.5" y2="633.5" /><text fill="#000000" font-family="sans-serif" font-size="11" lengthAdjust="spacingAndGlyphs" textLength="57" x="12" y="648.9189">String name</text><text fill="#000000" font-family="sans-serif" font-size="11" lengthAdjust="spacingAndGlyphs" textLength="55" x="12" y="662.7549">int capacity</text>
        <line style="stroke: #A80036; stroke-width: 1.5;" x1="7" x2="74" y1="669.1719" y2="669.1719" />
        <!--class Mentor-->
        <rect fill="#FEFECE" filter="url(#fkdgd1osizikd)" height="75.6719" id="Mentor" style="stroke: #A80036; stroke-width: 1.5;" width="110" x="358.5" y="601.5" />
        <ellipse cx="391.95" cy="617.5" fill="#ADD1B2" rx="11" ry="11" style="stroke: #A80036; stroke-width: 1.0;" />
        <path d="M394.7156,613.375 Q394.8719,613.1563 395.0594,613.0469 Q395.2469,612.9375 395.4656,612.9375 Q395.8406,612.9375 396.075,613.1953 Q396.3094,613.4531 396.3094,614.0625 L396.3094,615.5156 Q396.3094,616.125 396.075,616.3906 Q395.8406,616.6563 395.4656,616.6563 Q395.1219,616.6563 394.9188,616.4531 Q394.7156,616.2656 394.6063,615.75 Q394.5594,615.3906 394.3719,615.2031 Q394.0438,614.8281 393.4344,614.6094 Q392.825,614.3906 392.2,614.3906 Q391.4344,614.3906 390.8016,614.7188 Q390.1688,615.0469 389.6766,615.7969 Q389.1844,616.5469 389.1844,617.5781 L389.1844,618.6719 Q389.1844,619.9063 390.075,620.7266 Q390.9656,621.5469 392.5594,621.5469 Q393.4969,621.5469 394.1531,621.2969 Q394.5438,621.1406 394.9656,620.7031 Q395.2313,620.4375 395.3797,620.3594 Q395.5281,620.2813 395.7313,620.2813 Q396.0594,620.2813 396.3172,620.5391 Q396.575,620.7969 396.575,621.1406 Q396.575,621.4844 396.2313,621.8906 Q395.7313,622.4688 394.9344,622.7969 Q393.8563,623.25 392.5594,623.25 Q391.0438,623.25 389.8406,622.625 Q388.8563,622.125 388.1688,621.0547 Q387.4813,619.9844 387.4813,618.7031 L387.4813,617.5469 Q387.4813,616.2188 388.0984,615.0703 Q388.7156,613.9219 389.8094,613.3047 Q390.9031,612.6875 392.1375,612.6875 Q392.8719,612.6875 393.5203,612.8516 Q394.1688,613.0156 394.7156,613.375 Z " /><text fill="#000000" font-family="sans-serif" font-size="12" lengthAdjust="spacingAndGlyphs" textLength="37" x="410.05" y="622.4102">Mentor</text>
        <line style="stroke: #A80036; stroke-width: 1.5;" x1="359.5" x2="467.5" y1="633.5" y2="633.5" /><text fill="#000000" font-family="sans-serif" font-size="11" lengthAdjust="spacingAndGlyphs" textLength="57" x="364.5" y="648.9189">String name</text><text fill="#000000" font-family="sans-serif" font-size="11" lengthAdjust="spacingAndGlyphs" textLength="98" x="364.5" y="662.7549">String contact_detail</text>
        <line style="stroke: #A80036; stroke-width: 1.5;" x1="359.5" x2="467.5" y1="669.1719" y2="669.1719" />
        <!--class Teachers-->
        <rect fill="#FEFECE" filter="url(#fkdgd1osizikd)" height="75.6719" id="Teachers" style="stroke: #A80036; stroke-width: 1.5;" width="86" x="370.5" y="772" />
        <ellipse cx="386.4" cy="788" fill="#ADD1B2" rx="11" ry="11" style="stroke: #A80036; stroke-width: 1.0;" />
        <path d="M389.1656,783.875 Q389.3219,783.6563 389.5094,783.5469 Q389.6969,783.4375 389.9156,783.4375 Q390.2906,783.4375 390.525,783.6953 Q390.7594,783.9531 390.7594,784.5625 L390.7594,786.0156 Q390.7594,786.625 390.525,786.8906 Q390.2906,787.1563 389.9156,787.1563 Q389.5719,787.1563 389.3688,786.9531 Q389.1656,786.7656 389.0563,786.25 Q389.0094,785.8906 388.8219,785.7031 Q388.4938,785.3281 387.8844,785.1094 Q387.275,784.8906 386.65,784.8906 Q385.8844,784.8906 385.2516,785.2188 Q384.6188,785.5469 384.1266,786.2969 Q383.6344,787.0469 383.6344,788.0781 L383.6344,789.1719 Q383.6344,790.4063 384.525,791.2266 Q385.4156,792.0469 387.0094,792.0469 Q387.9469,792.0469 388.6031,791.7969 Q388.9938,791.6406 389.4156,791.2031 Q389.6813,790.9375 389.8297,790.8594 Q389.9781,790.7813 390.1813,790.7813 Q390.5094,790.7813 390.7672,791.0391 Q391.025,791.2969 391.025,791.6406 Q391.025,791.9844 390.6813,792.3906 Q390.1813,792.9688 389.3844,793.2969 Q388.3063,793.75 387.0094,793.75 Q385.4938,793.75 384.2906,793.125 Q383.3063,792.625 382.6188,791.5547 Q381.9313,790.4844 381.9313,789.2031 L381.9313,788.0469 Q381.9313,786.7188 382.5484,785.5703 Q383.1656,784.4219 384.2594,783.8047 Q385.3531,783.1875 386.5875,783.1875 Q387.3219,783.1875 387.9703,783.3516 Q388.6188,783.5156 389.1656,783.875 Z " /><text fill="#000000" font-family="sans-serif" font-size="12" lengthAdjust="spacingAndGlyphs" textLength="52" x="400.6" y="792.9102">Teachers</text>
        <line style="stroke: #A80036; stroke-width: 1.5;" x1="371.5" x2="455.5" y1="804" y2="804" /><text fill="#000000" font-family="sans-serif" font-size="11" lengthAdjust="spacingAndGlyphs" textLength="74" x="376.5" y="819.4189">Subject subject</text><text fill="#000000" font-family="sans-serif" font-size="11" lengthAdjust="spacingAndGlyphs" textLength="69" x="376.5" y="833.2549">Mentor mentor</text>
        <line style="stroke: #A80036; stroke-width: 1.5;" x1="371.5" x2="455.5" y1="839.6719" y2="839.6719" />
        <!--class Subject-->
        <rect fill="#FEFECE" filter="url(#fkdgd1osizikd)" height="75.6719" id="Subject" style="stroke: #A80036; stroke-width: 1.5;" width="73" x="377" y="908" />
        <ellipse cx="392" cy="924" fill="#ADD1B2" rx="11" ry="11" style="stroke: #A80036; stroke-width: 1.0;" />
        <path d="M394.7656,919.875 Q394.9219,919.6563 395.1094,919.5469 Q395.2969,919.4375 395.5156,919.4375 Q395.8906,919.4375 396.125,919.6953 Q396.3594,919.9531 396.3594,920.5625 L396.3594,922.0156 Q396.3594,922.625 396.125,922.8906 Q395.8906,923.1563 395.5156,923.1563 Q395.1719,923.1563 394.9688,922.9531 Q394.7656,922.7656 394.6563,922.25 Q394.6094,921.8906 394.4219,921.7031 Q394.0938,921.3281 393.4844,921.1094 Q392.875,920.8906 392.25,920.8906 Q391.4844,920.8906 390.8516,921.2188 Q390.2188,921.5469 389.7266,922.2969 Q389.2344,923.0469 389.2344,924.0781 L389.2344,925.1719 Q389.2344,926.4063 390.125,927.2266 Q391.0156,928.0469 392.6094,928.0469 Q393.5469,928.0469 394.2031,927.7969 Q394.5938,927.6406 395.0156,927.2031 Q395.2813,926.9375 395.4297,926.8594 Q395.5781,926.7813 395.7813,926.7813 Q396.1094,926.7813 396.3672,927.0391 Q396.625,927.2969 396.625,927.6406 Q396.625,927.9844 396.2813,928.3906 Q395.7813,928.9688 394.9844,929.2969 Q393.9063,929.75 392.6094,929.75 Q391.0938,929.75 389.8906,929.125 Q388.9063,928.625 388.2188,927.5547 Q387.5313,926.4844 387.5313,925.2031 L387.5313,924.0469 Q387.5313,922.7188 388.1484,921.5703 Q388.7656,920.4219 389.8594,919.8047 Q390.9531,919.1875 392.1875,919.1875 Q392.9219,919.1875 393.5703,919.3516 Q394.2188,919.5156 394.7656,919.875 Z " /><text fill="#000000" font-family="sans-serif" font-size="12" lengthAdjust="spacingAndGlyphs" textLength="41" x="406" y="928.9102">Subject</text>
        <line style="stroke: #A80036; stroke-width: 1.5;" x1="378" x2="449" y1="940" y2="940" /><text fill="#000000" font-family="sans-serif" font-size="11" lengthAdjust="spacingAndGlyphs" textLength="57" x="383" y="955.4189">String name</text><text fill="#000000" font-family="sans-serif" font-size="11" lengthAdjust="spacingAndGlyphs" textLength="36" x="383" y="969.2549">int year</text>
        <line style="stroke: #A80036; stroke-width: 1.5;" x1="378" x2="449" y1="975.6719" y2="975.6719" />
        <!--class Resource-->
        <rect fill="#FEFECE" filter="url(#fkdgd1osizikd)" height="131.0156" id="Resource" style="stroke: #A80036; stroke-width: 1.5;" width="101" x="417" y="178" />
        <ellipse cx="438.75" cy="194" fill="#ADD1B2" rx="11" ry="11" style="stroke: #A80036; stroke-width: 1.0;" />
        <path d="M441.5156,189.875 Q441.6719,189.6563 441.8594,189.5469 Q442.0469,189.4375 442.2656,189.4375 Q442.6406,189.4375 442.875,189.6953 Q443.1094,189.9531 443.1094,190.5625 L443.1094,192.0156 Q443.1094,192.625 442.875,192.8906 Q442.6406,193.1563 442.2656,193.1563 Q441.9219,193.1563 441.7188,192.9531 Q441.5156,192.7656 441.4063,192.25 Q441.3594,191.8906 441.1719,191.7031 Q440.8438,191.3281 440.2344,191.1094 Q439.625,190.8906 439,190.8906 Q438.2344,190.8906 437.6016,191.2188 Q436.9688,191.5469 436.4766,192.2969 Q435.9844,193.0469 435.9844,194.0781 L435.9844,195.1719 Q435.9844,196.4063 436.875,197.2266 Q437.7656,198.0469 439.3594,198.0469 Q440.2969,198.0469 440.9531,197.7969 Q441.3438,197.6406 441.7656,197.2031 Q442.0313,196.9375 442.1797,196.8594 Q442.3281,196.7813 442.5313,196.7813 Q442.8594,196.7813 443.1172,197.0391 Q443.375,197.2969 443.375,197.6406 Q443.375,197.9844 443.0313,198.3906 Q442.5313,198.9688 441.7344,199.2969 Q440.6563,199.75 439.3594,199.75 Q437.8438,199.75 436.6406,199.125 Q435.6563,198.625 434.9688,197.5547 Q434.2813,196.4844 434.2813,195.2031 L434.2813,194.0469 Q434.2813,192.7188 434.8984,191.5703 Q435.5156,190.4219 436.6094,189.8047 Q437.7031,189.1875 438.9375,189.1875 Q439.6719,189.1875 440.3203,189.3516 Q440.9688,189.5156 441.5156,189.875 Z " /><text fill="#000000" font-family="sans-serif" font-size="12" lengthAdjust="spacingAndGlyphs" textLength="54" x="454.25" y="198.9102">Resource</text>
        <line style="stroke: #A80036; stroke-width: 1.5;" x1="418" x2="517" y1="210" y2="210" /><text fill="#000000" font-family="sans-serif" font-size="11" lengthAdjust="spacingAndGlyphs" textLength="74" x="423" y="225.4189">Subject subject</text><text fill="#000000" font-family="sans-serif" font-size="11" lengthAdjust="spacingAndGlyphs" textLength="68" x="423" y="239.2549">User uploader</text>
        <line style="stroke: #A80036; stroke-width: 1.5;" x1="418" x2="517" y1="245.6719" y2="245.6719" /><text fill="#000000" font-family="sans-serif" font-size="11" lengthAdjust="spacingAndGlyphs" textLength="52" x="423" y="261.0908">addTopic()</text><text fill="#000000" font-family="sans-serif" font-size="11" lengthAdjust="spacingAndGlyphs" textLength="70" x="423" y="274.9268">removeTopic()</text><text fill="#000000" font-family="sans-serif" font-size="11" lengthAdjust="spacingAndGlyphs" textLength="51" x="423" y="288.7627">editTopic()</text><text fill="#000000" font-family="sans-serif" font-size="11" lengthAdjust="spacingAndGlyphs" textLength="89" x="423" y="302.5986">searchResource()</text>
        <!--class User-->
        <rect fill="#FEFECE" filter="url(#fkdgd1osizikd)" height="48" id="User" style="stroke: #A80036; stroke-width: 1.5;" width="59" x="384" y="417.5" />
        <ellipse cx="399" cy="433.5" fill="#ADD1B2" rx="11" ry="11" style="stroke: #A80036; stroke-width: 1.0;" />
        <path d="M401.7656,429.375 Q401.9219,429.1563 402.1094,429.0469 Q402.2969,428.9375 402.5156,428.9375 Q402.8906,428.9375 403.125,429.1953 Q403.3594,429.4531 403.3594,430.0625 L403.3594,431.5156 Q403.3594,432.125 403.125,432.3906 Q402.8906,432.6563 402.5156,432.6563 Q402.1719,432.6563 401.9688,432.4531 Q401.7656,432.2656 401.6563,431.75 Q401.6094,431.3906 401.4219,431.2031 Q401.0938,430.8281 400.4844,430.6094 Q399.875,430.3906 399.25,430.3906 Q398.4844,430.3906 397.8516,430.7188 Q397.2188,431.0469 396.7266,431.7969 Q396.2344,432.5469 396.2344,433.5781 L396.2344,434.6719 Q396.2344,435.9063 397.125,436.7266 Q398.0156,437.5469 399.6094,437.5469 Q400.5469,437.5469 401.2031,437.2969 Q401.5938,437.1406 402.0156,436.7031 Q402.2813,436.4375 402.4297,436.3594 Q402.5781,436.2813 402.7813,436.2813 Q403.1094,436.2813 403.3672,436.5391 Q403.625,436.7969 403.625,437.1406 Q403.625,437.4844 403.2813,437.8906 Q402.7813,438.4688 401.9844,438.7969 Q400.9063,439.25 399.6094,439.25 Q398.0938,439.25 396.8906,438.625 Q395.9063,438.125 395.2188,437.0547 Q394.5313,435.9844 394.5313,434.7031 L394.5313,433.5469 Q394.5313,432.2188 395.1484,431.0703 Q395.7656,429.9219 396.8594,429.3047 Q397.9531,428.6875 399.1875,428.6875 Q399.9219,428.6875 400.5703,428.8516 Q401.2188,429.0156 401.7656,429.375 Z " /><text fill="#000000" font-family="sans-serif" font-size="12" lengthAdjust="spacingAndGlyphs" textLength="27" x="413" y="438.4102">User</text>
        <line style="stroke: #A80036; stroke-width: 1.5;" x1="385" x2="442" y1="449.5" y2="449.5" />
        <line style="stroke: #A80036; stroke-width: 1.5;" x1="385" x2="442" y1="457.5" y2="457.5" />
        <!--class Student-->
        <rect fill="#FEFECE" filter="url(#fkdgd1osizikd)" height="144.8516" id="Student" style="stroke: #A80036; stroke-width: 1.5;" width="141" x="182" y="567" />
        <ellipse cx="227.25" cy="583" fill="#ADD1B2" rx="11" ry="11" style="stroke: #A80036; stroke-width: 1.0;" />
        <path d="M230.0156,578.875 Q230.1719,578.6563 230.3594,578.5469 Q230.5469,578.4375 230.7656,578.4375 Q231.1406,578.4375 231.375,578.6953 Q231.6094,578.9531 231.6094,579.5625 L231.6094,581.0156 Q231.6094,581.625 231.375,581.8906 Q231.1406,582.1563 230.7656,582.1563 Q230.4219,582.1563 230.2188,581.9531 Q230.0156,581.7656 229.9063,581.25 Q229.8594,580.8906 229.6719,580.7031 Q229.3438,580.3281 228.7344,580.1094 Q228.125,579.8906 227.5,579.8906 Q226.7344,579.8906 226.1016,580.2188 Q225.4688,580.5469 224.9766,581.2969 Q224.4844,582.0469 224.4844,583.0781 L224.4844,584.1719 Q224.4844,585.4063 225.375,586.2266 Q226.2656,587.0469 227.8594,587.0469 Q228.7969,587.0469 229.4531,586.7969 Q229.8438,586.6406 230.2656,586.2031 Q230.5313,585.9375 230.6797,585.8594 Q230.8281,585.7813 231.0313,585.7813 Q231.3594,585.7813 231.6172,586.0391 Q231.875,586.2969 231.875,586.6406 Q231.875,586.9844 231.5313,587.3906 Q231.0313,587.9688 230.2344,588.2969 Q229.1563,588.75 227.8594,588.75 Q226.3438,588.75 225.1406,588.125 Q224.1563,587.625 223.4688,586.5547 Q222.7813,585.4844 222.7813,584.2031 L222.7813,583.0469 Q222.7813,581.7188 223.3984,580.5703 Q224.0156,579.4219 225.1094,578.8047 Q226.2031,578.1875 227.4375,578.1875 Q228.1719,578.1875 228.8203,578.3516 Q229.4688,578.5156 230.0156,578.875 Z " /><text fill="#000000" font-family="sans-serif" font-size="12" lengthAdjust="spacingAndGlyphs" textLength="42" x="247.75" y="587.9102">Student</text>
        <line style="stroke: #A80036; stroke-width: 1.5;" x1="183" x2="322" y1="599" y2="599" /><text fill="#000000" font-family="sans-serif" font-size="11" lengthAdjust="spacingAndGlyphs" textLength="57" x="188" y="614.4189">String name</text><text fill="#000000" font-family="sans-serif" font-size="11" lengthAdjust="spacingAndGlyphs" textLength="36" x="188" y="628.2549">int year</text><text fill="#000000" font-family="sans-serif" font-size="11" lengthAdjust="spacingAndGlyphs" textLength="39" x="188" y="642.0908">String Id</text><text fill="#000000" font-family="sans-serif" font-size="11" lengthAdjust="spacingAndGlyphs" textLength="129" x="188" y="655.9268">Lesson[] attendedLessons</text>
        <line style="stroke: #A80036; stroke-width: 1.5;" x1="183" x2="322" y1="662.3438" y2="662.3438" /><text fill="#000000" font-family="sans-serif" font-size="11" lengthAdjust="spacingAndGlyphs" textLength="74" x="188" y="677.7627">attendLesson()</text><text fill="#000000" font-family="sans-serif" font-size="11" lengthAdjust="spacingAndGlyphs" textLength="79" x="188" y="691.5986">getAttendance()</text><text fill="#000000" font-family="sans-serif" font-size="11" lengthAdjust="spacingAndGlyphs" textLength="92" x="188" y="705.4346">verifyAttendance()</text>
        <!--class Resources-->
        <rect fill="#FEFECE" filter="url(#fkdgd1osizikd)" height="103.3438" id="Resources" style="stroke: #A80036; stroke-width: 1.5;" width="118" x="408.5" y="8" />
        <ellipse cx="434.75" cy="24" fill="#ADD1B2" rx="11" ry="11" style="stroke: #A80036; stroke-width: 1.0;" />
        <path d="M437.5156,19.875 Q437.6719,19.6563 437.8594,19.5469 Q438.0469,19.4375 438.2656,19.4375 Q438.6406,19.4375 438.875,19.6953 Q439.1094,19.9531 439.1094,20.5625 L439.1094,22.0156 Q439.1094,22.625 438.875,22.8906 Q438.6406,23.1563 438.2656,23.1563 Q437.9219,23.1563 437.7188,22.9531 Q437.5156,22.7656 437.4063,22.25 Q437.3594,21.8906 437.1719,21.7031 Q436.8438,21.3281 436.2344,21.1094 Q435.625,20.8906 435,20.8906 Q434.2344,20.8906 433.6016,21.2188 Q432.9688,21.5469 432.4766,22.2969 Q431.9844,23.0469 431.9844,24.0781 L431.9844,25.1719 Q431.9844,26.4063 432.875,27.2266 Q433.7656,28.0469 435.3594,28.0469 Q436.2969,28.0469 436.9531,27.7969 Q437.3438,27.6406 437.7656,27.2031 Q438.0313,26.9375 438.1797,26.8594 Q438.3281,26.7813 438.5313,26.7813 Q438.8594,26.7813 439.1172,27.0391 Q439.375,27.2969 439.375,27.6406 Q439.375,27.9844 439.0313,28.3906 Q438.5313,28.9688 437.7344,29.2969 Q436.6563,29.75 435.3594,29.75 Q433.8438,29.75 432.6406,29.125 Q431.6563,28.625 430.9688,27.5547 Q430.2813,26.4844 430.2813,25.2031 L430.2813,24.0469 Q430.2813,22.7188 430.8984,21.5703 Q431.5156,20.4219 432.6094,19.8047 Q433.7031,19.1875 434.9375,19.1875 Q435.6719,19.1875 436.3203,19.3516 Q436.9688,19.5156 437.5156,19.875 Z " /><text fill="#000000" font-family="sans-serif" font-size="12" lengthAdjust="spacingAndGlyphs" textLength="61" x="451.25" y="28.9102">Resources</text>
        <line style="stroke: #A80036; stroke-width: 1.5;" x1="409.5" x2="525.5" y1="40" y2="40" /><text fill="#000000" font-family="sans-serif" font-size="11" lengthAdjust="spacingAndGlyphs" textLength="106" x="414.5" y="55.4189">Resource[] resources</text>
        <line style="stroke: #A80036; stroke-width: 1.5;" x1="409.5" x2="525.5" y1="61.8359" y2="61.8359" /><text fill="#000000" font-family="sans-serif" font-size="11" lengthAdjust="spacingAndGlyphs" textLength="73" x="414.5" y="77.2549">addResource()</text><text fill="#000000" font-family="sans-serif" font-size="11" lengthAdjust="spacingAndGlyphs" textLength="72" x="414.5" y="91.0908">editResource()</text><text fill="#000000" font-family="sans-serif" font-size="11" lengthAdjust="spacingAndGlyphs" textLength="91" x="414.5" y="104.9268">removeResource()</text>
        <!--link Timetable to Lesson-->
        <path d="M190.5,329.12 C190.5,344.803 190.5,360.952 190.5,375.919 " fill="none" id="Timetable-Lesson" style="stroke: #A80036; stroke-width: 1.0;" />
        <polygon fill="#FFFFFF" points="190.5,316.092,186.5,322.092,190.5,328.092,194.5,322.092,190.5,316.092" style="stroke: #A80036; stroke-width: 1.0;" /><text fill="#000000" font-family="sans-serif" font-size="13" lengthAdjust="spacingAndGlyphs" textLength="7" x="183.1664" y="337.2924">1</text><text fill="#000000" font-family="sans-serif" font-size="13" lengthAdjust="spacingAndGlyphs" textLength="5" x="185.2109" y="364.9257">*</text>
        <!--link Lesson to Room-->
        <path d="M140.969,507.221 C117.075,538.442 89.2674,574.777 68.973,601.295 " fill="none" id="Lesson-Room" style="stroke: #A80036; stroke-width: 1.0;" /><text fill="#000000" font-family="sans-serif" font-size="13" lengthAdjust="spacingAndGlyphs" textLength="7" x="128.5002" y="528.3359">1</text><text fill="#000000" font-family="sans-serif" font-size="13" lengthAdjust="spacingAndGlyphs" textLength="7" x="66.4213" y="590.6204">1</text>
        <!--link Lesson to Mentor-->
        <path d="M259.08,497.429 C284.992,518.699 314.489,543.54 340.5,567 C352.488,577.812 365.177,589.972 376.554,601.156 " fill="none" id="Lesson-Mentor" style="stroke: #A80036; stroke-width: 1.0;" /><text fill="#000000" font-family="sans-serif" font-size="13" lengthAdjust="spacingAndGlyphs" textLength="7" x="266.9638" y="500.1847">1</text><text fill="#000000" font-family="sans-serif" font-size="13" lengthAdjust="spacingAndGlyphs" textLength="20" x="348.4852" y="590.7442">1..*</text>
        <!--link Mentor to Teachers-->
        <path d="M413.5,677.896 C413.5,705.916 413.5,744.075 413.5,771.999 " fill="none" id="Mentor-Teachers" style="stroke: #A80036; stroke-width: 1.0;" /><text fill="#000000" font-family="sans-serif" font-size="13" lengthAdjust="spacingAndGlyphs" textLength="7" x="405.9641" y="698.5475">1</text><text fill="#000000" font-family="sans-serif" font-size="13" lengthAdjust="spacingAndGlyphs" textLength="5" x="408.0391" y="761.0753">*</text>
        <!--link Teachers to Subject-->
        <path d="M413.5,848.326 C413.5,866.912 413.5,889.3155 413.5,907.8737 " fill="none" id="Teachers-Subject" style="stroke: #A80036; stroke-width: 1.0;" /><text fill="#000000" font-family="sans-serif" font-size="13" lengthAdjust="spacingAndGlyphs" textLength="5" x="408.1016" y="869.2585">*</text><text fill="#000000" font-family="sans-serif" font-size="13" lengthAdjust="spacingAndGlyphs" textLength="7" x="405.8766" y="897.2131">1</text>
        <!--link Resource to User-->
        <path d="M449.669,309.221 C439.408,346.464 427.143,390.982 419.855,417.435 " fill="none" id="Resource-User" style="stroke: #A80036; stroke-width: 1.0;" /><text fill="#000000" font-family="sans-serif" font-size="13" lengthAdjust="spacingAndGlyphs" textLength="5" x="442.5724" y="330.3359">*</text><text fill="#000000" font-family="sans-serif" font-size="13" lengthAdjust="spacingAndGlyphs" textLength="7" x="413.5866" y="406.7585">1</text>
        <!--link User to Student-->
        <path d="M381.665,481.255 C361.623,505.654 335.138,537.897 311.37,566.832 " fill="none" id="User-Student" style="stroke: #A80036; stroke-width: 1.0; stroke-dasharray: 7.0,7.0;" />
        <polygon fill="none" points="376.295,476.765,394.399,465.753,387.113,485.651,376.295,476.765" style="stroke: #A80036; stroke-width: 1.0;" />
        <!--link User to Mentor-->
        <path d="M413.5,485.778 C413.5,520.36 413.5,568.322 413.5,601.219 " fill="none" id="User-Mentor" style="stroke: #A80036; stroke-width: 1.0; stroke-dasharray: 7.0,7.0;" />
        <polygon fill="none" points="406.5,485.753,413.5,465.753,420.5,485.753,406.5,485.753" style="stroke: #A80036; stroke-width: 1.0;" />
        <!--link Resource to Subject-->
        <path d="M481.528,309.155 C503.108,421.959 535.814,660.578 473.5,848 C466.441,869.233 453.923,890.6206 442.141,907.8894 " fill="none" id="Resource-Subject" style="stroke: #A80036; stroke-width: 1.0;" /><text fill="#000000" font-family="sans-serif" font-size="13" lengthAdjust="spacingAndGlyphs" textLength="7" x="475.6795" y="330.7245">1</text><text fill="#000000" font-family="sans-serif" font-size="13" lengthAdjust="spacingAndGlyphs" textLength="7" x="439.6192" y="897.2316">1</text>
        <!--link Resources to Resource-->
        <path d="M467.5,124.396 C467.5,141.686 467.5,160.412 467.5,177.749 " fill="none" id="Resources-Resource" style="stroke: #A80036; stroke-width: 1.0;" />
        <polygon fill="#FFFFFF" points="467.5,111.197,463.5,117.197,467.5,123.197,471.5,117.197,467.5,111.197" style="stroke: #A80036; stroke-width: 1.0;" />
        <!--link Lesson to Subject-->
        <path d="M167.117,507.064 C150.612,563.462 136.02,646.345 164.5,712 C208.087,812.48 318.713,889.4152 376.723,924.3612 " fill="none" id="Lesson-Subject" style="stroke: #A80036; stroke-width: 1.0;" /><text fill="#000000" font-family="sans-serif" font-size="13" lengthAdjust="spacingAndGlyphs" textLength="7" x="157.1767" y="528.6236">1</text><text fill="#000000" font-family="sans-serif" font-size="13" lengthAdjust="spacingAndGlyphs" textLength="7" x="362.0452" y="916.2712">1</text>
        <!--link Lesson to Student-->
        <path d="M210.973,507.221 C217.004,526.288 223.639,547.263 229.802,566.744 " fill="none" id="Lesson-Student" style="stroke: #A80036; stroke-width: 1.0;" /><text fill="#000000" font-family="sans-serif" font-size="13" lengthAdjust="spacingAndGlyphs" textLength="7" x="205.7233" y="528.3359">1</text><text fill="#000000" font-family="sans-serif" font-size="13" lengthAdjust="spacingAndGlyphs" textLength="5" x="222.2035" y="555.9369">*</text>
        <!--
@startuml

Timetable "1" o- - "*" Lesson
Lesson "1" - - "1" Room
Lesson "1" - - "1..*" Mentor

Mentor "1" - - "*" Teachers
Teachers "*" - - "1" Subject
Resource "*" - - "1" User
User <|.. Student
User <|.. Mentor
Resource "1" - - "1" Subject
Resources o- - Resource
Lesson "1" - - "1" Subject
Lesson "1" - - "*" Student

class Timetable {
  Lesson[] lessons
  addLesson()
  removeLesson()
  changeLesson()
  showTimetable()
  searchLessons()
  bookClass()
}

class Lesson {
  Subject topic
  DateTime datetime
  Room room
  Mentor mentor
  String recommendedLevel
  int attendance
}

class Room {
  String name
  int capacity
}

class Mentor {
  String name
  String contact_detail
}

class Resources {
  Resource[] resources
  addResource()
  editResource()
  removeResource()
}

class Resource {
  Subject subject
  User uploader
  addTopic()
  removeTopic()
  editTopic()
  searchResource()
}

class Student {
  String name
  int year
  String Id
  Lesson[] attendedLessons
  attendLesson()
  getAttendance()
  verifyAttendance()
}

class Subject {
  String name
  int year
}

class Teachers {
  Subject subject
  Mentor mentor
}

@enduml

PlantUML version 1.2019.01(Sat Feb 09 15:32:04 GMT 2019)
(GPL source distribution)
Java Runtime: Java(TM) SE Runtime Environment
JVM: Java HotSpot(TM) Client VM
Java Version: 1.8.0_191-b12
Operating System: Windows 10
OS Version: 10.0
Default Encoding: Cp1252
Language: en
Country: GB
-->
    </g>
</svg>