<?xml version="1.0" encoding="UTF-8" standalone="no"?><svg xmlns="http://www.w3.org/2000/svg" xmlns:xlink="http://www.w3.org/1999/xlink" contentScriptType="application/ecmascript" contentStyleType="text/css" height="490px" preserveAspectRatio="none" style="width:231px;height:490px;" version="1.1" viewBox="0 0 231 490" width="231px" zoomAndPan="magnify">
    <defs>
        <filter height="300%" id="flil8sxaop2mp" width="300%" x="-1" y="-1">
            <feGaussianBlur result="blurOut" stdDeviation="2.0" />
            <feColorMatrix in="blurOut" result="blurOut2" type="matrix" values="0 0 0 0 0 0 0 0 0 0 0 0 0 0 0 0 0 0 .4 0" />
            <feOffset dx="4.0" dy="4.0" in="blurOut2" result="blurOut3" />
            <feBlend in="SourceGraphic" in2="blurOut3" mode="normal" />
        </filter>
    </defs>
    <g>
        <!--class Timetable-->
        <rect fill="#FEFECE" filter="url(#flil8sxaop2mp)" height="144.8516" id="Timetable" style="stroke: #A80036; stroke-width: 1.5;" width="96" x="54.5" y="8" />
        <ellipse cx="73.55" cy="24" fill="#ADD1B2" rx="11" ry="11" style="stroke: #A80036; stroke-width: 1.0;" />
        <path d="M76.3156,19.875 Q76.4719,19.6563 76.6594,19.5469 Q76.8469,19.4375 77.0656,19.4375 Q77.4406,19.4375 77.675,19.6953 Q77.9094,19.9531 77.9094,20.5625 L77.9094,22.0156 Q77.9094,22.625 77.675,22.8906 Q77.4406,23.1563 77.0656,23.1563 Q76.7219,23.1563 76.5188,22.9531 Q76.3156,22.7656 76.2063,22.25 Q76.1594,21.8906 75.9719,21.7031 Q75.6438,21.3281 75.0344,21.1094 Q74.425,20.8906 73.8,20.8906 Q73.0344,20.8906 72.4016,21.2188 Q71.7688,21.5469 71.2766,22.2969 Q70.7844,23.0469 70.7844,24.0781 L70.7844,25.1719 Q70.7844,26.4063 71.675,27.2266 Q72.5656,28.0469 74.1594,28.0469 Q75.0969,28.0469 75.7531,27.7969 Q76.1438,27.6406 76.5656,27.2031 Q76.8313,26.9375 76.9797,26.8594 Q77.1281,26.7813 77.3313,26.7813 Q77.6594,26.7813 77.9172,27.0391 Q78.175,27.2969 78.175,27.6406 Q78.175,27.9844 77.8313,28.3906 Q77.3313,28.9688 76.5344,29.2969 Q75.4563,29.75 74.1594,29.75 Q72.6438,29.75 71.4406,29.125 Q70.4563,28.625 69.7688,27.5547 Q69.0813,26.4844 69.0813,25.2031 L69.0813,24.0469 Q69.0813,22.7188 69.6984,21.5703 Q70.3156,20.4219 71.4094,19.8047 Q72.5031,19.1875 73.7375,19.1875 Q74.4719,19.1875 75.1203,19.3516 Q75.7688,19.5156 76.3156,19.875 Z " /><text fill="#000000" font-family="sans-serif" font-size="12" lengthAdjust="spacingAndGlyphs" textLength="55" x="88.45" y="28.9102">Timetable</text>
        <line style="stroke: #A80036; stroke-width: 1.5;" x1="55.5" x2="149.5" y1="40" y2="40" /><text fill="#000000" font-family="sans-serif" font-size="11" lengthAdjust="spacingAndGlyphs" textLength="83" x="60.5" y="55.4189">Lesson[] lessons</text>
        <line style="stroke: #A80036; stroke-width: 1.5;" x1="55.5" x2="149.5" y1="61.8359" y2="61.8359" /><text fill="#000000" font-family="sans-serif" font-size="11" lengthAdjust="spacingAndGlyphs" textLength="62" x="60.5" y="77.2549">addLesson()</text><text fill="#000000" font-family="sans-serif" font-size="11" lengthAdjust="spacingAndGlyphs" textLength="80" x="60.5" y="91.0908">removeLesson()</text><text fill="#000000" font-family="sans-serif" font-size="11" lengthAdjust="spacingAndGlyphs" textLength="80" x="60.5" y="104.9268">changeLesson()</text><text fill="#000000" font-family="sans-serif" font-size="11" lengthAdjust="spacingAndGlyphs" textLength="81" x="60.5" y="118.7627">showTimetable()</text><text fill="#000000" font-family="sans-serif" font-size="11" lengthAdjust="spacingAndGlyphs" textLength="84" x="60.5" y="132.5986">searchLessons()</text><text fill="#000000" font-family="sans-serif" font-size="11" lengthAdjust="spacingAndGlyphs" textLength="58" x="60.5" y="146.4346">bookClass()</text>
        <!--class Lesson-->
        <rect fill="#FEFECE" filter="url(#flil8sxaop2mp)" height="131.0156" id="Lesson" style="stroke: #A80036; stroke-width: 1.5;" width="137" x="34" y="213" />
        <ellipse cx="77.35" cy="229" fill="#ADD1B2" rx="11" ry="11" style="stroke: #A80036; stroke-width: 1.0;" />
        <path d="M80.1156,224.875 Q80.2719,224.6563 80.4594,224.5469 Q80.6469,224.4375 80.8656,224.4375 Q81.2406,224.4375 81.475,224.6953 Q81.7094,224.9531 81.7094,225.5625 L81.7094,227.0156 Q81.7094,227.625 81.475,227.8906 Q81.2406,228.1563 80.8656,228.1563 Q80.5219,228.1563 80.3188,227.9531 Q80.1156,227.7656 80.0063,227.25 Q79.9594,226.8906 79.7719,226.7031 Q79.4438,226.3281 78.8344,226.1094 Q78.225,225.8906 77.6,225.8906 Q76.8344,225.8906 76.2016,226.2188 Q75.5688,226.5469 75.0766,227.2969 Q74.5844,228.0469 74.5844,229.0781 L74.5844,230.1719 Q74.5844,231.4063 75.475,232.2266 Q76.3656,233.0469 77.9594,233.0469 Q78.8969,233.0469 79.5531,232.7969 Q79.9438,232.6406 80.3656,232.2031 Q80.6313,231.9375 80.7797,231.8594 Q80.9281,231.7813 81.1313,231.7813 Q81.4594,231.7813 81.7172,232.0391 Q81.975,232.2969 81.975,232.6406 Q81.975,232.9844 81.6313,233.3906 Q81.1313,233.9688 80.3344,234.2969 Q79.2563,234.75 77.9594,234.75 Q76.4438,234.75 75.2406,234.125 Q74.2563,233.625 73.5688,232.5547 Q72.8813,231.4844 72.8813,230.2031 L72.8813,229.0469 Q72.8813,227.7188 73.4984,226.5703 Q74.1156,225.4219 75.2094,224.8047 Q76.3031,224.1875 77.5375,224.1875 Q78.2719,224.1875 78.9203,224.3516 Q79.5688,224.5156 80.1156,224.875 Z " /><text fill="#000000" font-family="sans-serif" font-size="12" lengthAdjust="spacingAndGlyphs" textLength="42" x="97.65" y="233.9102">Lesson</text>
        <line style="stroke: #A80036; stroke-width: 1.5;" x1="35" x2="170" y1="245" y2="245" /><text fill="#000000" font-family="sans-serif" font-size="11" lengthAdjust="spacingAndGlyphs" textLength="54" x="40" y="260.4189">String topic</text><text fill="#000000" font-family="sans-serif" font-size="11" lengthAdjust="spacingAndGlyphs" textLength="87" x="40" y="274.2549">DateTime datetime</text><text fill="#000000" font-family="sans-serif" font-size="11" lengthAdjust="spacingAndGlyphs" textLength="54" x="40" y="288.0908">Room room</text><text fill="#000000" font-family="sans-serif" font-size="11" lengthAdjust="spacingAndGlyphs" textLength="69" x="40" y="301.9268">Mentor mentor</text><text fill="#000000" font-family="sans-serif" font-size="11" lengthAdjust="spacingAndGlyphs" textLength="125" x="40" y="315.7627">String recommendedLevel</text><text fill="#000000" font-family="sans-serif" font-size="11" lengthAdjust="spacingAndGlyphs" textLength="68" x="40" y="329.5986">int attendance</text>
        <line style="stroke: #A80036; stroke-width: 1.5;" x1="35" x2="170" y1="336.0156" y2="336.0156" />
        <!--class Room-->
        <rect fill="#FEFECE" filter="url(#flil8sxaop2mp)" height="75.6719" id="Room" style="stroke: #A80036; stroke-width: 1.5;" width="69" x="6" y="404" />
        <ellipse cx="22.35" cy="420" fill="#ADD1B2" rx="11" ry="11" style="stroke: #A80036; stroke-width: 1.0;" />
        <path d="M25.1156,415.875 Q25.2719,415.6563 25.4594,415.5469 Q25.6469,415.4375 25.8656,415.4375 Q26.2406,415.4375 26.475,415.6953 Q26.7094,415.9531 26.7094,416.5625 L26.7094,418.0156 Q26.7094,418.625 26.475,418.8906 Q26.2406,419.1563 25.8656,419.1563 Q25.5219,419.1563 25.3188,418.9531 Q25.1156,418.7656 25.0063,418.25 Q24.9594,417.8906 24.7719,417.7031 Q24.4438,417.3281 23.8344,417.1094 Q23.225,416.8906 22.6,416.8906 Q21.8344,416.8906 21.2016,417.2188 Q20.5688,417.5469 20.0766,418.2969 Q19.5844,419.0469 19.5844,420.0781 L19.5844,421.1719 Q19.5844,422.4063 20.475,423.2266 Q21.3656,424.0469 22.9594,424.0469 Q23.8969,424.0469 24.5531,423.7969 Q24.9438,423.6406 25.3656,423.2031 Q25.6313,422.9375 25.7797,422.8594 Q25.9281,422.7813 26.1313,422.7813 Q26.4594,422.7813 26.7172,423.0391 Q26.975,423.2969 26.975,423.6406 Q26.975,423.9844 26.6313,424.3906 Q26.1313,424.9688 25.3344,425.2969 Q24.2563,425.75 22.9594,425.75 Q21.4438,425.75 20.2406,425.125 Q19.2563,424.625 18.5688,423.5547 Q17.8813,422.4844 17.8813,421.2031 L17.8813,420.0469 Q17.8813,418.7188 18.4984,417.5703 Q19.1156,416.4219 20.2094,415.8047 Q21.3031,415.1875 22.5375,415.1875 Q23.2719,415.1875 23.9203,415.3516 Q24.5688,415.5156 25.1156,415.875 Z " /><text fill="#000000" font-family="sans-serif" font-size="12" lengthAdjust="spacingAndGlyphs" textLength="34" x="36.65" y="424.9102">Room</text>
        <line style="stroke: #A80036; stroke-width: 1.5;" x1="7" x2="74" y1="436" y2="436" /><text fill="#000000" font-family="sans-serif" font-size="11" lengthAdjust="spacingAndGlyphs" textLength="57" x="12" y="451.4189">String name</text><text fill="#000000" font-family="sans-serif" font-size="11" lengthAdjust="spacingAndGlyphs" textLength="55" x="12" y="465.2549">int capacity</text>
        <line style="stroke: #A80036; stroke-width: 1.5;" x1="7" x2="74" y1="471.6719" y2="471.6719" />
        <!--class Mentor-->
        <rect fill="#FEFECE" filter="url(#flil8sxaop2mp)" height="75.6719" id="Mentor" style="stroke: #A80036; stroke-width: 1.5;" width="110" x="110.5" y="404" />
        <ellipse cx="143.95" cy="420" fill="#ADD1B2" rx="11" ry="11" style="stroke: #A80036; stroke-width: 1.0;" />
        <path d="M146.7156,415.875 Q146.8719,415.6563 147.0594,415.5469 Q147.2469,415.4375 147.4656,415.4375 Q147.8406,415.4375 148.075,415.6953 Q148.3094,415.9531 148.3094,416.5625 L148.3094,418.0156 Q148.3094,418.625 148.075,418.8906 Q147.8406,419.1563 147.4656,419.1563 Q147.1219,419.1563 146.9188,418.9531 Q146.7156,418.7656 146.6063,418.25 Q146.5594,417.8906 146.3719,417.7031 Q146.0438,417.3281 145.4344,417.1094 Q144.825,416.8906 144.2,416.8906 Q143.4344,416.8906 142.8016,417.2188 Q142.1688,417.5469 141.6766,418.2969 Q141.1844,419.0469 141.1844,420.0781 L141.1844,421.1719 Q141.1844,422.4063 142.075,423.2266 Q142.9656,424.0469 144.5594,424.0469 Q145.4969,424.0469 146.1531,423.7969 Q146.5438,423.6406 146.9656,423.2031 Q147.2313,422.9375 147.3797,422.8594 Q147.5281,422.7813 147.7313,422.7813 Q148.0594,422.7813 148.3172,423.0391 Q148.575,423.2969 148.575,423.6406 Q148.575,423.9844 148.2313,424.3906 Q147.7313,424.9688 146.9344,425.2969 Q145.8563,425.75 144.5594,425.75 Q143.0438,425.75 141.8406,425.125 Q140.8563,424.625 140.1688,423.5547 Q139.4813,422.4844 139.4813,421.2031 L139.4813,420.0469 Q139.4813,418.7188 140.0984,417.5703 Q140.7156,416.4219 141.8094,415.8047 Q142.9031,415.1875 144.1375,415.1875 Q144.8719,415.1875 145.5203,415.3516 Q146.1688,415.5156 146.7156,415.875 Z " /><text fill="#000000" font-family="sans-serif" font-size="12" lengthAdjust="spacingAndGlyphs" textLength="37" x="162.05" y="424.9102">Mentor</text>
        <line style="stroke: #A80036; stroke-width: 1.5;" x1="111.5" x2="219.5" y1="436" y2="436" /><text fill="#000000" font-family="sans-serif" font-size="11" lengthAdjust="spacingAndGlyphs" textLength="57" x="116.5" y="451.4189">String name</text><text fill="#000000" font-family="sans-serif" font-size="11" lengthAdjust="spacingAndGlyphs" textLength="98" x="116.5" y="465.2549">String contact_detail</text>
        <line style="stroke: #A80036; stroke-width: 1.5;" x1="111.5" x2="219.5" y1="471.6719" y2="471.6719" />
        <!--link Timetable to Lesson-->
        <path d="M102.5,166.12 C102.5,181.803 102.5,197.952 102.5,212.919 " fill="none" id="Timetable-Lesson" style="stroke: #A80036; stroke-width: 1.0;" />
        <polygon fill="#FFFFFF" points="102.5,153.092,98.5,159.092,102.5,165.092,106.5,159.092,102.5,153.092" style="stroke: #A80036; stroke-width: 1.0;" />
        <!--link Lesson to Room-->
        <path d="M77.6395,344.258 C69.891,364.441 61.6093,386.0136 54.8372,403.6539 " fill="none" id="Lesson-Room" style="stroke: #A80036; stroke-width: 1.0;" />
        <!--link Lesson to Mentor-->
        <path d="M127.762,344.258 C135.635,364.441 144.05,386.0136 150.932,403.6539 " fill="none" id="Lesson-Mentor" style="stroke: #A80036; stroke-width: 1.0;" />
        <!--
@startuml

Timetable o- - Lesson
Lesson - - Room
Lesson - - Mentor

class Timetable {
  Lesson[] lessons
  addLesson()
  removeLesson()
  changeLesson()
  showTimetable()
  searchLessons()
  bookClass()
}

class Lesson {
  String topic
  DateTime datetime
  Room room
  Mentor mentor
  String recommendedLevel
  int attendance
}

class Room {
  String name
  int capacity
}

class Mentor {
  String name
  String contact_detail
}

@enduml

PlantUML version 1.2019.01(Sat Feb 09 15:32:04 GMT 2019)
(GPL source distribution)
Java Runtime: Java(TM) SE Runtime Environment
JVM: Java HotSpot(TM) Client VM
Java Version: 1.8.0_191-b12
Operating System: Windows 10
OS Version: 10.0
Default Encoding: Cp1252
Language: en
Country: GB
-->
    </g>
</svg>